<mxfile host="app.diagrams.net" modified="2021-08-19T10:37:04.367Z" agent="5.0 (Windows NT 10.0; Win64; x64) AppleWebKit/537.36 (KHTML, like Gecko) Chrome/92.0.4515.159 Safari/537.36" etag="hYCUGKQMXW1hdWzDfQIy" version="14.7.1" type="github">
  <diagram name="Architecture" id="Architecture">
    <mxGraphModel dx="723" dy="410" grid="1" gridSize="10" guides="1" tooltips="1" connect="1" arrows="1" fold="1" page="1" pageScale="1" pageWidth="850" pageHeight="1100" math="0" shadow="0">
      <root>
        <mxCell id="0" />
        <mxCell id="1" parent="0" />
        <mxCell id="Cpq1ZpIzhN0V-iwIdP6c-247" style="vsdxID=182;gradientColor=none;shape=stencil(nZBLDoAgDERP0z3SIyjew0SURgSD+Lu9kMZoXLhwN9O+tukAlrNpJg1SzDH4QW/URgNYgZTkjA4UkwJUgGXng+6DX1zLfmoymdXo17xh5zmRJ6Q42BWCfc2oJfdAr+Yv+AP9Cb7OJ3H/2JG1HNGz/84klThPVCc=);dashed=1;labelBackgroundColor=#FFFFFF;rounded=0;html=1;whiteSpace=wrap;strokeWidth=1;perimeterSpacing=0;fillColor=none;shadow=0;strokeColor=#6666FF;" parent="1" vertex="1">
          <mxGeometry x="60" y="190" width="660" height="467" as="geometry" />
        </mxCell>
        <mxCell id="53" style="vsdxID=182;fillColor=none;gradientColor=none;shape=stencil(nZBLDoAgDERP0z3SIyjew0SURgSD+Lu9kMZoXLhwN9O+tukAlrNpJg1SzDH4QW/URgNYgZTkjA4UkwJUgGXng+6DX1zLfmoymdXo17xh5zmRJ6Q42BWCfc2oJfdAr+Yv+AP9Cb7OJ3H/2JG1HNGz/84klThPVCc=);dashed=1;dashPattern=1.00 2.00;strokeColor=#0078d7;labelBackgroundColor=#FFFFFF;rounded=0;html=1;whiteSpace=wrap;" parent="1" vertex="1">
          <mxGeometry x="322" y="240" width="318" height="310" as="geometry" />
        </mxCell>
        <mxCell id="62" value="&lt;font style=&quot;font-size:11px;font-family:Segoe UI;color:#0070c0;direction:ltr;letter-spacing:0px;line-height:120%;opacity:1&quot;&gt;Virtual network&lt;br/&gt;&lt;/font&gt;" style="verticalAlign=middle;align=center;vsdxID=191;fillColor=none;gradientColor=none;shape=stencil(nZBLDoAgDERP0z3SIyjew0SURgSD+Lu9kMZoXLhwN9O+tukAlrNpJg1SzDH4QW/URgNYgZTkjA4UkwJUgGXng+6DX1zLfmoymdXo17xh5zmRJ6Q42BWCfc2oJfdAr+Yv+AP9Cb7OJ3H/2JG1HNGz/84klThPVCc=);strokeColor=none;labelBackgroundColor=none;rounded=0;html=1;whiteSpace=wrap;" parent="1" vertex="1">
          <mxGeometry x="605" y="482" width="153" height="20" as="geometry" />
        </mxCell>
        <mxCell id="2" style="vsdxID=1;fillColor=none;gradientColor=none;strokeColor=none;spacingTop=-3;spacingBottom=-3;spacingLeft=-3;spacingRight=-3;labelBackgroundColor=none;rounded=0;html=1;whiteSpace=wrap;" parent="1" vertex="1">
          <mxGeometry x="590" y="202" width="50" height="36" as="geometry" />
        </mxCell>
        <mxCell id="3" style="vsdxID=2;fillColor=#804998;gradientColor=none;shape=stencil(jZDRDoIwDEW/pq9ka2PmO8J/kDDc4tzIGKJ/72ZjREwMb7ftuU17gerJdKMGFFOK4aIX2ycDdAJE642ONmUF1ADVQ4j6HMPse67HrpBFXcOtbLizTwpRPCgeXKtDdZSvTsu4s36Ff8Nv8w70D7g9AWWl1H785+IsPt8O1jkOaz3fppNbnCw1Tw==);strokeColor=none;strokeWidth=17;spacingTop=-3;spacingBottom=-3;spacingLeft=-3;spacingRight=-3;labelBackgroundColor=none;rounded=0;html=1;whiteSpace=wrap;" parent="2" vertex="1">
          <mxGeometry x="15.18987341772152" width="7.59493670886076" height="11.593220338983048" as="geometry" />
        </mxCell>
        <mxCell id="4" style="vsdxID=3;fillColor=#804998;gradientColor=none;shape=stencil(pZVLcoMwDIZPw1ZjWdiW12l6j8yENEwpZEj6un1NKWmMi4KnO9v8nyzrgQranI+7U1Vodb703XP1Xu8vx4IeCq3r9lj19SWsCtoWtDl0ffXUd6/tftyfdoNyWL10b4OFj5FTA6HV57hDC9p+nzyO4qZuF8WsAXFZjGpm+2e/SixI/+FxIo5jgQoMRYBzoMtl62Yyd9VbKHWGXiN4I0Vl7lAAUHAIDTgfAwqIloFgT5k4Rh6MkNUUcAwsZCB1KQAq69F3srACiPNMFriMS1lB6YVHe2Ad3+DBuhwAGQR96hE6YMGjkqag3wBKuMEoYM7pnBQI/e6FUkpduvODyE7DCiBOtOWpHa+AAZKiFNIaVzcTOOkPkABYghWilLqENNXKn0CoZYz7BzUIenbgZheE/hDenALhhHMcYgsoANlZWAGExe9EO9RNMw7E2+/zCRiOxulJ2y8=);strokeColor=none;strokeWidth=17;spacingTop=-3;spacingBottom=-3;spacingLeft=-3;spacingRight=-3;labelBackgroundColor=none;rounded=0;html=1;whiteSpace=wrap;" parent="2" vertex="1">
          <mxGeometry x="8.227848101265824" width="5.696202531645571" height="11.593220338983048" as="geometry" />
        </mxCell>
        <mxCell id="5" style="vsdxID=4;fillColor=#804998;gradientColor=none;shape=stencil(jZDRDoIwDEW/pq9ka2PmO8J/kDDc4tzIGKJ/72ZjREwMb7ftuU17gerJdKMGFFOK4aIX2ycDdAJE642ONmUF1ADVQ4j6HMPse67HrpBFXcOtbLizTwpRPCgeXKtDdZSvTsu4s36Ff8Nv8w70D7g9AWWl1H785+IsPt8O1jkOaz3fppNbnCw1Tw==);strokeColor=none;strokeWidth=17;spacingTop=-3;spacingBottom=-3;spacingLeft=-3;spacingRight=-3;labelBackgroundColor=none;rounded=0;html=1;whiteSpace=wrap;" parent="2" vertex="1">
          <mxGeometry x="32.911392405063296" width="7.59493670886076" height="11.593220338983048" as="geometry" />
        </mxCell>
        <mxCell id="6" style="vsdxID=5;fillColor=#804998;gradientColor=none;shape=stencil(pZVLcoMwDIZPw1ZjWdiW12l6j8yENEwpZEj6un1NKWmMi4KnO9v8nyzrgQranI+7U1Vodb703XP1Xu8vx4IeCq3r9lj19SWsCtoWtDl0ffXUd6/tftyfdoNyWL10b4OFj5FTA6HV57hDC9p+nzyO4qZuF8WsAXFZjGpm+2e/SixI/+FxIo5jgQoMRYBzoMtl62Yyd9VbKHWGXiN4I0Vl7lAAUHAIDTgfAwqIloFgT5k4Rh6MkNUUcAwsZCB1KQAq69F3srACiPNMFriMS1lB6YVHe2Ad3+DBuhwAGQR96hE6YMGjkqag3wBKuMEoYM7pnBQI/e6FUkpduvODyE7DCiBOtOWpHa+AAZKiFNIaVzcTOOkPkABYghWilLqENNXKn0CoZYz7BzUIenbgZheE/hDenALhhHMcYgsoANlZWAGExe9EO9RNMw7E2+/zCRiOxulJ2y8=);strokeColor=none;strokeWidth=17;spacingTop=-3;spacingBottom=-3;spacingLeft=-3;spacingRight=-3;labelBackgroundColor=none;rounded=0;html=1;whiteSpace=wrap;" parent="2" vertex="1">
          <mxGeometry x="25.949367088607598" width="5.696202531645571" height="11.593220338983048" as="geometry" />
        </mxCell>
        <mxCell id="7" style="vsdxID=6;fillColor=#804998;gradientColor=none;shape=stencil(jZDRDoIwDEW/pq9ka2PmO8J/kDDc4tzIGKJ/72ZjREwMb7ftuU17gerJdKMGFFOK4aIX2ycDdAJE642ONmUF1ADVQ4j6HMPse67HrpBFXcOtbLizTwpRPCgeXKtDdZSvTsu4s36Ff8Nv8w70D7g9AWWl1H785+IsPt8O1jkOaz3fppNbnCw1Tw==);strokeColor=none;strokeWidth=17;spacingTop=-3;spacingBottom=-3;spacingLeft=-3;spacingRight=-3;labelBackgroundColor=none;rounded=0;html=1;whiteSpace=wrap;" parent="2" vertex="1">
          <mxGeometry x="15.18987341772152" y="23.796610169491522" width="7.59493670886076" height="11.593220338983048" as="geometry" />
        </mxCell>
        <mxCell id="8" style="vsdxID=7;fillColor=#804998;gradientColor=none;shape=stencil(pZVLcoMwDIZPw1ZjWdiW12l6j8yENEwpZEj6un1NKWmMi4KnO9v8nyzrgQranI+7U1Vodb703XP1Xu8vx4IeCq3r9lj19SWsCtoWtDl0ffXUd6/tftyfdoNyWL10b4OFj5FTA6HV57hDC9p+nzyO4qZuF8WsAXFZjGpm+2e/SixI/+FxIo5jgQoMRYBzoMtl62Yyd9VbKHWGXiN4I0Vl7lAAUHAIDTgfAwqIloFgT5k4Rh6MkNUUcAwsZCB1KQAq69F3srACiPNMFriMS1lB6YVHe2Ad3+DBuhwAGQR96hE6YMGjkqag3wBKuMEoYM7pnBQI/e6FUkpduvODyE7DCiBOtOWpHa+AAZKiFNIaVzcTOOkPkABYghWilLqENNXKn0CoZYz7BzUIenbgZheE/hDenALhhHMcYgsoANlZWAGExe9EO9RNMw7E2+/zCRiOxulJ2y8=);strokeColor=none;strokeWidth=17;spacingTop=-3;spacingBottom=-3;spacingLeft=-3;spacingRight=-3;labelBackgroundColor=none;rounded=0;html=1;whiteSpace=wrap;" parent="2" vertex="1">
          <mxGeometry x="8.227848101265824" y="23.796610169491522" width="5.696202531645571" height="11.593220338983048" as="geometry" />
        </mxCell>
        <mxCell id="9" style="vsdxID=8;fillColor=#804998;gradientColor=none;shape=stencil(jZDRDoIwDEW/pq9ka2PmO8J/kDDc4tzIGKJ/72ZjREwMb7ftuU17gerJdKMGFFOK4aIX2ycDdAJE642ONmUF1ADVQ4j6HMPse67HrpBFXcOtbLizTwpRPCgeXKtDdZSvTsu4s36Ff8Nv8w70D7g9AWWl1H785+IsPt8O1jkOaz3fppNbnCw1Tw==);strokeColor=none;strokeWidth=17;spacingTop=-3;spacingBottom=-3;spacingLeft=-3;spacingRight=-3;labelBackgroundColor=none;rounded=0;html=1;whiteSpace=wrap;" parent="2" vertex="1">
          <mxGeometry x="32.911392405063296" y="23.796610169491522" width="7.59493670886076" height="11.593220338983048" as="geometry" />
        </mxCell>
        <mxCell id="10" style="vsdxID=9;fillColor=#804998;gradientColor=none;shape=stencil(pZVLcoMwDIZPw1ZjWdiW12l6j8yENEwpZEj6un1NKWmMi4KnO9v8nyzrgQranI+7U1Vodb703XP1Xu8vx4IeCq3r9lj19SWsCtoWtDl0ffXUd6/tftyfdoNyWL10b4OFj5FTA6HV57hDC9p+nzyO4qZuF8WsAXFZjGpm+2e/SixI/+FxIo5jgQoMRYBzoMtl62Yyd9VbKHWGXiN4I0Vl7lAAUHAIDTgfAwqIloFgT5k4Rh6MkNUUcAwsZCB1KQAq69F3srACiPNMFriMS1lB6YVHe2Ad3+DBuhwAGQR96hE6YMGjkqag3wBKuMEoYM7pnBQI/e6FUkpduvODyE7DCiBOtOWpHa+AAZKiFNIaVzcTOOkPkABYghWilLqENNXKn0CoZYz7BzUIenbgZheE/hDenALhhHMcYgsoANlZWAGExe9EO9RNMw7E2+/zCRiOxulJ2y8=);strokeColor=none;strokeWidth=17;spacingTop=-3;spacingBottom=-3;spacingLeft=-3;spacingRight=-3;labelBackgroundColor=none;rounded=0;html=1;whiteSpace=wrap;" parent="2" vertex="1">
          <mxGeometry x="25.949367088607598" y="23.796610169491522" width="5.696202531645571" height="11.593220338983048" as="geometry" />
        </mxCell>
        <mxCell id="11" style="vsdxID=10;fillColor=#804998;gradientColor=none;shape=stencil(UzV2Ls5ILEhVNTIoLinKz04tz0wpyVA1dlE1MsrMy0gtyiwBslSNXVWNndPyi1LTi/JL81Ig/IJEkEoQKze/DGRCBUSfoYEBSI+RQSWEb26mZ2IEFnGDKM/JzENSjqoYppkIpXgUojvByFDP0pR45RguBjIQvk3LzMmBBBayPHroAIUgIWvsCgA=);strokeColor=none;strokeWidth=17;spacingTop=-3;spacingBottom=-3;spacingLeft=-3;spacingRight=-3;labelBackgroundColor=none;rounded=0;html=1;whiteSpace=wrap;" parent="2" vertex="1">
          <mxGeometry x="24.683544303797472" y="11.593220338983048" width="7.59493670886076" height="11.593220338983048" as="geometry" />
        </mxCell>
        <mxCell id="12" style="vsdxID=11;fillColor=#804998;gradientColor=none;shape=stencil(pVXLcsIwDPyaXHcsP+Uzpf/BDKFkSgkT0tff12kKreOJINObnezKq5VsVWZ13m9OdaXVue/a5/q92fb7yjxUWjfHfd01fVpVZl2Z1a7t6qeufT1ux/1pMyCH1Uv7NkT4GHlqYGj1Oe7IQ/vvL48j+NAcZ8GsQTQPJjWJ/bO/CyxA/6G4AOdekIIzGSEEaDsf3V3CXfEeVi/Aa0J0kitTQYlAgiByCDEnKBgzT0jxlMs9inBCVUtCYLBQgVJSIqhFSd+owh2EvM7Gg23eygTJpAjWOV7BxiWEG66WiogR5vHWXDy/4gNYUOQUmKcEJZxQEtggCFUoJaX3IQquLq3CbXxeZc+Xu3jFexALKUf4vLXZwgmdWhJSs1uBUEoiCy/knBqZ8stDBkpoJA4IkxOSSULSJYEZXnjDSknJ1ii03uI63EFIi9+BtmsOh3Ee/v0/HYDp0zg8zfoL);strokeColor=none;strokeWidth=17;spacingTop=-3;spacingBottom=-3;spacingLeft=-3;spacingRight=-3;labelBackgroundColor=none;rounded=0;html=1;whiteSpace=wrap;" parent="2" vertex="1">
          <mxGeometry x="17.721518987341774" y="11.593220338983048" width="5.696202531645571" height="11.593220338983048" as="geometry" />
        </mxCell>
        <mxCell id="13" style="vsdxID=12;fillColor=#804998;gradientColor=none;shape=stencil(UzV2Ls5ILEhVNTIoLinKz04tz0wpyVA1dlE1MsrMy0gtyiwBslSNXVWNndPyi1LTi/JL81Ig/IJEkEoQKze/DGRCBUSfoYEBSI+RQSWEb26mZ2IEFnGDKM/JzENSjqoYppkIpXgUojvByFDP0pR45RguBjIQvk3LzMmBBBayPHroAIUgIWvsCgA=);strokeColor=none;strokeWidth=17;spacingTop=-3;spacingBottom=-3;spacingLeft=-3;spacingRight=-3;labelBackgroundColor=none;rounded=0;html=1;whiteSpace=wrap;" parent="2" vertex="1">
          <mxGeometry x="6.962025316455697" y="11.593220338983048" width="7.59493670886076" height="11.593220338983048" as="geometry" />
        </mxCell>
        <mxCell id="14" style="vsdxID=13;fillColor=#804998;gradientColor=none;shape=stencil(pVXLcsIwDPyaXHcsP+Uzpf/BDKFkSgkT0tff12kKreOJINObnezKq5VsVWZ13m9OdaXVue/a5/q92fb7yjxUWjfHfd01fVpVZl2Z1a7t6qeufT1ux/1pMyCH1Uv7NkT4GHlqYGj1Oe7IQ/vvL48j+NAcZ8GsQTQPJjWJ/bO/CyxA/6G4AOdekIIzGSEEaDsf3V3CXfEeVi/Aa0J0kitTQYlAgiByCDEnKBgzT0jxlMs9inBCVUtCYLBQgVJSIqhFSd+owh2EvM7Gg23eygTJpAjWOV7BxiWEG66WiogR5vHWXDy/4gNYUOQUmKcEJZxQEtggCFUoJaX3IQquLq3CbXxeZc+Xu3jFexALKUf4vLXZwgmdWhJSs1uBUEoiCy/knBqZ8stDBkpoJA4IkxOSSULSJYEZXnjDSknJ1ii03uI63EFIi9+BtmsOh3Ee/v0/HYDp0zg8zfoL);strokeColor=none;strokeWidth=17;spacingTop=-3;spacingBottom=-3;spacingLeft=-3;spacingRight=-3;labelBackgroundColor=none;rounded=0;html=1;whiteSpace=wrap;" parent="2" vertex="1">
          <mxGeometry y="11.593220338983048" width="5.696202531645571" height="11.593220338983048" as="geometry" />
        </mxCell>
        <mxCell id="15" style="vsdxID=14;fillColor=#804998;gradientColor=none;shape=stencil(UzV2Ls5ILEhVNTIoLinKz04tz0wpyVA1dlE1MsrMy0gtyiwBslSNXVWNndPyi1LTi/JL81Ig/IJEkEoQKze/DGRCBUSfoYEBSI+RQSWEb26mZ2IEFnGDKM/JzENSjqoYppkIpXgUojvByFDP0pR45RguBjIQvk3LzMmBBBayPHroAIUgIWvsCgA=);strokeColor=none;strokeWidth=17;spacingTop=-3;spacingBottom=-3;spacingLeft=-3;spacingRight=-3;labelBackgroundColor=none;rounded=0;html=1;whiteSpace=wrap;" parent="2" vertex="1">
          <mxGeometry x="42.40506329113924" y="11.593220338983048" width="7.59493670886076" height="11.593220338983048" as="geometry" />
        </mxCell>
        <mxCell id="16" style="vsdxID=15;fillColor=#FFFFFF;gradientColor=none;fillOpacity=20;strokeOpacity=20;shape=stencil(jZDRDoIwDEW/pq9ka2PmO8J/kDDc4tzIGKJ/72ZjREwMb7ftuU17gerJdKMGFFOK4aIX2ycDdAJE642ONmUF1ADVQ4j6HMPse67HrpBFXcOtbLizTwpRPCgeXKtDdZSvTsu4s36Ff8Nv8w70D7g9AWWl1H785+IsPt8O1jkOaz3fppNbnCw1Tw==);strokeColor=none;strokeWidth=17;spacingTop=-3;spacingBottom=-3;spacingLeft=-3;spacingRight=-3;labelBackgroundColor=none;rounded=0;html=1;whiteSpace=wrap;" parent="2" vertex="1">
          <mxGeometry x="15.18987341772152" width="7.59493670886076" height="11.593220338983048" as="geometry" />
        </mxCell>
        <mxCell id="17" style="vsdxID=16;fillColor=#FFFFFF;gradientColor=none;fillOpacity=20;strokeOpacity=20;shape=stencil(jZDRDoIwDEW/pq9ka2PmO8J/kDDc4tzIGKJ/72ZjREwMb7ftuU17gerJdKMGFFOK4aIX2ycDdAJE642ONmUF1ADVQ4j6HMPse67HrpBFXcOtbLizTwpRPCgeXKtDdZSvTsu4s36Ff8Nv8w70D7g9AWWl1H785+IsPt8O1jkOaz3fppNbnCw1Tw==);strokeColor=none;strokeWidth=17;spacingTop=-3;spacingBottom=-3;spacingLeft=-3;spacingRight=-3;labelBackgroundColor=none;rounded=0;html=1;whiteSpace=wrap;" parent="2" vertex="1">
          <mxGeometry x="32.911392405063296" width="7.59493670886076" height="11.593220338983048" as="geometry" />
        </mxCell>
        <mxCell id="18" style="vsdxID=17;fillColor=#FFFFFF;gradientColor=none;fillOpacity=20;strokeOpacity=20;shape=stencil(jZDRDoIwDEW/pq9ka2PmO8J/kDDc4tzIGKJ/72ZjREwMb7ftuU17gerJdKMGFFOK4aIX2ycDdAJE642ONmUF1ADVQ4j6HMPse67HrpBFXcOtbLizTwpRPCgeXKtDdZSvTsu4s36Ff8Nv8w70D7g9AWWl1H785+IsPt8O1jkOaz3fppNbnCw1Tw==);strokeColor=none;strokeWidth=17;spacingTop=-3;spacingBottom=-3;spacingLeft=-3;spacingRight=-3;labelBackgroundColor=none;rounded=0;html=1;whiteSpace=wrap;" parent="2" vertex="1">
          <mxGeometry x="15.18987341772152" y="23.796610169491522" width="7.59493670886076" height="11.593220338983048" as="geometry" />
        </mxCell>
        <mxCell id="19" style="vsdxID=18;fillColor=#FFFFFF;gradientColor=none;fillOpacity=20;strokeOpacity=20;shape=stencil(jZDRDoIwDEW/pq9ka2PmO8J/kDDc4tzIGKJ/72ZjREwMb7ftuU17gerJdKMGFFOK4aIX2ycDdAJE642ONmUF1ADVQ4j6HMPse67HrpBFXcOtbLizTwpRPCgeXKtDdZSvTsu4s36Ff8Nv8w70D7g9AWWl1H785+IsPt8O1jkOaz3fppNbnCw1Tw==);strokeColor=none;strokeWidth=17;spacingTop=-3;spacingBottom=-3;spacingLeft=-3;spacingRight=-3;labelBackgroundColor=none;rounded=0;html=1;whiteSpace=wrap;" parent="2" vertex="1">
          <mxGeometry x="32.911392405063296" y="23.796610169491522" width="7.59493670886076" height="11.593220338983048" as="geometry" />
        </mxCell>
        <mxCell id="20" style="vsdxID=19;fillColor=#FFFFFF;gradientColor=none;fillOpacity=20;strokeOpacity=20;shape=stencil(UzV2Ls5ILEhVNTIoLinKz04tz0wpyVA1dlE1MsrMy0gtyiwBslSNXVWNndPyi1LTi/JL81Ig/IJEkEoQKze/DGRCBUSfoYEBSI+RQSWEb26mZ2IEFnGDKM/JzENSjqoYppkIpXgUojvByFDP0pR45RguBjIQvk3LzMmBBBayPHroAIUgIWvsCgA=);strokeColor=none;strokeWidth=17;spacingTop=-3;spacingBottom=-3;spacingLeft=-3;spacingRight=-3;labelBackgroundColor=none;rounded=0;html=1;whiteSpace=wrap;" parent="2" vertex="1">
          <mxGeometry x="24.683544303797472" y="11.593220338983048" width="7.59493670886076" height="11.593220338983048" as="geometry" />
        </mxCell>
        <mxCell id="21" style="vsdxID=20;fillColor=#FFFFFF;gradientColor=none;fillOpacity=20;strokeOpacity=20;shape=stencil(UzV2Ls5ILEhVNTIoLinKz04tz0wpyVA1dlE1MsrMy0gtyiwBslSNXVWNndPyi1LTi/JL81Ig/IJEkEoQKze/DGRCBUSfoYEBSI+RQSWEb26mZ2IEFnGDKM/JzENSjqoYppkIpXgUojvByFDP0pR45RguBjIQvk3LzMmBBBayPHroAIUgIWvsCgA=);strokeColor=none;strokeWidth=17;spacingTop=-3;spacingBottom=-3;spacingLeft=-3;spacingRight=-3;labelBackgroundColor=none;rounded=0;html=1;whiteSpace=wrap;" parent="2" vertex="1">
          <mxGeometry x="6.962025316455697" y="11.593220338983048" width="7.59493670886076" height="11.593220338983048" as="geometry" />
        </mxCell>
        <mxCell id="22" style="vsdxID=21;fillColor=#FFFFFF;gradientColor=none;fillOpacity=20;strokeOpacity=20;shape=stencil(UzV2Ls5ILEhVNTIoLinKz04tz0wpyVA1dlE1MsrMy0gtyiwBslSNXVWNndPyi1LTi/JL81Ig/IJEkEoQKze/DGRCBUSfoYEBSI+RQSWEb26mZ2IEFnGDKM/JzENSjqoYppkIpXgUojvByFDP0pR45RguBjIQvk3LzMmBBBayPHroAIUgIWvsCgA=);strokeColor=none;strokeWidth=17;spacingTop=-3;spacingBottom=-3;spacingLeft=-3;spacingRight=-3;labelBackgroundColor=none;rounded=0;html=1;whiteSpace=wrap;" parent="2" vertex="1">
          <mxGeometry x="42.40506329113924" y="11.593220338983048" width="7.59493670886076" height="11.593220338983048" as="geometry" />
        </mxCell>
        <mxCell id="23" style="vsdxID=22;fillColor=#804998;gradientColor=none;shape=stencil(pVXLcsIwDPyaXHcsP+Uzpf/BDKFkSgkT0tff12kKreOJINObnezKq5VsVWZ13m9OdaXVue/a5/q92fb7yjxUWjfHfd01fVpVZl2Z1a7t6qeufT1ux/1pMyCH1Uv7NkT4GHlqYGj1Oe7IQ/vvL48j+NAcZ8GsQTQPJjWJ/bO/CyxA/6G4AOdekIIzGSEEaDsf3V3CXfEeVi/Aa0J0kitTQYlAgiByCDEnKBgzT0jxlMs9inBCVUtCYLBQgVJSIqhFSd+owh2EvM7Gg23eygTJpAjWOV7BxiWEG66WiogR5vHWXDy/4gNYUOQUmKcEJZxQEtggCFUoJaX3IQquLq3CbXxeZc+Xu3jFexALKUf4vLXZwgmdWhJSs1uBUEoiCy/knBqZ8stDBkpoJA4IkxOSSULSJYEZXnjDSknJ1ii03uI63EFIi9+BtmsOh3Ee/v0/HYDp0zg8zfoL);strokeColor=none;strokeWidth=17;spacingTop=-3;spacingBottom=-3;spacingLeft=-3;spacingRight=-3;labelBackgroundColor=none;rounded=0;html=1;whiteSpace=wrap;" parent="2" vertex="1">
          <mxGeometry x="35.44303797468355" y="11.593220338983048" width="5.696202531645571" height="11.593220338983048" as="geometry" />
        </mxCell>
        <mxCell id="24" value="&lt;p style=&quot;align:left;margin-left:0;margin-right:0;margin-top:0px;margin-bottom:0px;text-indent:0;valign:bottom;direction:ltr;&quot;&gt;&lt;font style=&quot;font-size:8px;font-family:Segoe UI;color:#595959;direction:ltr;letter-spacing:0px;line-height:120%;opacity:1&quot;&gt;Namespace&lt;br/&gt;&lt;/font&gt;&lt;/p&gt;" style="verticalAlign=bottom;align=left;vsdxID=24;fillColor=none;gradientColor=none;shape=stencil(nZBLDoAgDERP0z3SIyjew0SURgSD+Lu9kMZoXLhwN9O+tukAlrNpJg1SzDH4QW/URgNYgZTkjA4UkwJUgGXng+6DX1zLfmoymdXo17xh5zmRJ6Q42BWCfc2oJfdAr+Yv+AP9Cb7OJ3H/2JG1HNGz/84klThPVCc=);strokeColor=#bfbfbf;spacingBottom=-1;spacingRight=-1;labelBackgroundColor=none;rounded=0;html=1;whiteSpace=wrap;" parent="1" vertex="1">
          <mxGeometry x="330" y="252" width="95" height="166" as="geometry" />
        </mxCell>
        <mxCell id="25" value="&lt;p style=&quot;align:left;margin-left:0;margin-right:0;margin-top:0px;margin-bottom:0px;text-indent:0;valign:bottom;direction:ltr;&quot;&gt;&lt;font style=&quot;font-size:8px;font-family:Segoe UI;color:#595959;direction:ltr;letter-spacing:0px;line-height:120%;opacity:1&quot;&gt;Namespace&lt;br/&gt;&lt;/font&gt;&lt;/p&gt;" style="verticalAlign=bottom;align=left;vsdxID=26;fillColor=none;gradientColor=none;shape=stencil(nZBLDoAgDERP0z3SIyjew0SURgSD+Lu9kMZoXLhwN9O+tukAlrNpJg1SzDH4QW/URgNYgZTkjA4UkwJUgGXng+6DX1zLfmoymdXo17xh5zmRJ6Q42BWCfc2oJfdAr+Yv+AP9Cb7OJ3H/2JG1HNGz/84klThPVCc=);strokeColor=#bfbfbf;spacingBottom=-1;spacingRight=-1;labelBackgroundColor=none;rounded=0;html=1;whiteSpace=wrap;" parent="1" vertex="1">
          <mxGeometry x="431" y="252" width="199" height="166" as="geometry" />
        </mxCell>
        <mxCell id="27" value="&lt;font style=&quot;font-size:12px;font-family:Segoe UI;color:#000000;direction:ltr;letter-spacing:0px;line-height:120%;opacity:1&quot;&gt;Front end&lt;br/&gt;&lt;/font&gt;" style="verticalAlign=middle;align=center;vsdxID=29;fillColor=none;gradientColor=none;shape=stencil(nZBLDoAgDERP0z3SIyjew0SURgSD+Lu9kMZoXLhwN9O+tukAlrNpJg1SzDH4QW/URgNYgZTkjA4UkwJUgGXng+6DX1zLfmoymdXo17xh5zmRJ6Q42BWCfc2oJfdAr+Yv+AP9Cb7OJ3H/2JG1HNGz/84klThPVCc=);strokeColor=none;labelBackgroundColor=none;rounded=0;html=1;whiteSpace=wrap;" parent="1" vertex="1">
          <mxGeometry x="330" y="252" width="95" height="19" as="geometry" />
        </mxCell>
        <mxCell id="28" value="&lt;font style=&quot;font-size:12px;font-family:Segoe UI;color:#000000;direction:ltr;letter-spacing:0px;line-height:120%;opacity:1&quot;&gt;Back-end services&lt;br/&gt;&lt;/font&gt;" style="verticalAlign=middle;align=center;vsdxID=30;fillColor=none;gradientColor=none;shape=stencil(nZBLDoAgDERP0z3SIyjew0SURgSD+Lu9kMZoXLhwN9O+tukAlrNpJg1SzDH4QW/URgNYgZTkjA4UkwJUgGXng+6DX1zLfmoymdXo17xh5zmRJ6Q42BWCfc2oJfdAr+Yv+AP9Cb7OJ3H/2JG1HNGz/84klThPVCc=);strokeColor=none;labelBackgroundColor=none;rounded=0;html=1;whiteSpace=wrap;" parent="1" vertex="1">
          <mxGeometry x="431" y="252" width="159" height="19" as="geometry" />
        </mxCell>
        <mxCell id="30" style="vsdxID=32;fillColor=none;gradientColor=none;strokeColor=none;spacingTop=-3;spacingBottom=-3;spacingLeft=-3;spacingRight=-3;labelBackgroundColor=none;rounded=0;html=1;whiteSpace=wrap;" parent="1" vertex="1">
          <mxGeometry x="444" y="558" width="42" height="42" as="geometry" />
        </mxCell>
        <mxCell id="31" style="vsdxID=33;fillColor=#FFFFFF;gradientColor=none;shape=stencil(lZHdDsIgDIWfprekA2bc9ZzvsWRMiAgLw7+3F2yMzGRLvDttv540pyDaWfeTAo5zDP6s7maIGsQBODdOq2BiUiA6EO3ogzoFf3UD1VOfyawu/pYdHrRXI6vyEscnNfBdHYm1xhUsLsC6YXKdlQ3bywVf4Yb1Z1iY79bpf47eZpP4JjMaaynYcv6bZGrRF0T3Ag==);strokeColor=#FFFFFF;strokeWidth=2;spacingTop=-3;spacingBottom=-3;spacingLeft=-3;spacingRight=-3;labelBackgroundColor=none;rounded=0;html=1;whiteSpace=wrap;" parent="30" vertex="1">
          <mxGeometry width="42" height="42" as="geometry" />
        </mxCell>
        <mxCell id="32" style="vsdxID=34;fillColor=none;gradientColor=none;strokeColor=none;spacingTop=-3;spacingBottom=-3;spacingLeft=-3;spacingRight=-3;labelBackgroundColor=none;rounded=0;html=1;whiteSpace=wrap;" parent="30" vertex="1">
          <mxGeometry width="42" height="42" as="geometry" />
        </mxCell>
        <mxCell id="33" style="vsdxID=35;fillColor=none;gradientColor=none;strokeColor=none;spacingTop=-3;spacingBottom=-3;spacingLeft=-3;spacingRight=-3;labelBackgroundColor=none;rounded=0;html=1;whiteSpace=wrap;" parent="32" vertex="1">
          <mxGeometry x="12" y="16" width="7" height="13" as="geometry" />
        </mxCell>
        <mxCell id="34" style="vsdxID=36;fillColor=#0078d7;gradientColor=none;shape=stencil(hVPLUsMwDPyaXDXWw5J1ZEr5jw5NaYbSMGkL5e9xcEqTUOAU27urrLVyxYvDdvVaVxQOx659rt+b9XFb8X1F1Oy3ddcc86riZcWLTdvVT1172q/L/nXVM/vVS/vWVzgXnRNQ6lUUPspJ+No9FPKu2Y/IYUIUA9cx+fHUldI4EACDSwimrpGjexz0Ax4RUozJEgm6cgHPVEAFCaJoTugcMeCgHeCoQEgoYkJuNGj5WzuwLwcB1K5Ww90Nt7/98AITuCNKvgyb4NRsBBPxDKbEEtF9alZjNoueXDiXlqlZAZ2ZNRCZmZ3mgGGaxGV/M7Q5WSHwX6l5AlVNkm9rkW3eh/6qSswpGUnKpGknnCHnaknVoyebxxaAVXLWMeRvVs96MZ5G/jGONzrxz/jmxXXwN81uV97NGJ8/lHxUHhkvPwE=);strokeColor=none;spacingTop=-3;spacingBottom=-3;spacingLeft=-3;spacingRight=-3;labelBackgroundColor=none;rounded=0;html=1;whiteSpace=wrap;" parent="33" vertex="1">
          <mxGeometry width="7" height="13" as="geometry" />
        </mxCell>
        <mxCell id="35" style="vsdxID=37;fillColor=none;gradientColor=none;strokeColor=none;spacingTop=-3;spacingBottom=-3;spacingLeft=-3;spacingRight=-3;labelBackgroundColor=none;rounded=0;html=1;whiteSpace=wrap;" parent="32" vertex="1">
          <mxGeometry x="21" y="16" width="7" height="13" as="geometry" />
        </mxCell>
        <mxCell id="36" style="vsdxID=38;fillColor=#0078d7;gradientColor=none;shape=stencil(lVPLbgIxDPyavUZ+xY6PFaX/gQqUVSmgBVr4+2bZ8AhCVD2tHc8449m44dF2MdnMGoLtrlt/zn7a6W7R8GtD1K4Ws67d5ajhccOj+bqbfXTr/Wo65JtJj+yjr/V33+Ew8NADUM8iOA4ncMreBvD7vhvQWOAWGMGNUJiUC7EUIYgiJjaQJKXpgQoxqCMDJlPQ6IVYihrcnESNmRK6W+HyrSI4ltSCyFUjvGSZy3Z1MxNU8yBUE9VQTwGlgmsMzs8scAuUIicXiglrB1QCJodczp8UAWsTMhVRskFuisR3JlCeS8hYOarG2oITs7ZBIdidDQ+kPrivFKMFU6bowBjPJlyUZl84oaiakFitNEowMuTcX7LYWunZ7ovOiMH86f/64w3+C5yD61Oft8vlsCm39fvVyEfDWvH4Fw==);strokeColor=none;spacingTop=-3;spacingBottom=-3;spacingLeft=-3;spacingRight=-3;labelBackgroundColor=none;rounded=0;html=1;whiteSpace=wrap;" parent="35" vertex="1">
          <mxGeometry width="7" height="13" as="geometry" />
        </mxCell>
        <mxCell id="37" style="vsdxID=39;fillColor=#0078d7;gradientColor=none;shape=stencil(lVfJchtHDP0aXruAxtY4phznP1yxHLGiSC5aTuS/zxtx1uaQLPFCchpoPAAPyxzk04/HL98fDpV+vJ5e/n747/j19fEgvx9qPT4/PpyOr/h1kM8H+fTt5fTw1+nl5/PX8//vXwbJ4dc/L/8ON7yd9YwKD0qVfp0f0Pu/P86yT8fnlSxtBC2LXpfVLE038kw3rp4OV5f7demPgL4tuw1GeFHZCLtNT0aFP3+ezho8qmipEuFByeI5KvNKW6JRksZwMhy+1VGzFhYLSa3RknPSHY9di6m3tCQEc9KVUZeK+yg/PvJasi1I6bfLSHiZ7vk1Qwi95Z1FaSS1cQImN+Ktf3Ce2KqTeLj41j9rBcAVkTHHh8i3DoYVq5JmjVRy69+ga1v/Igpl598F3Gsmx/PGxYS1Iaya3OXDtDhypa4sjCtIt3ibFWauUiHK2uGlUrdw36XvwFUrjaWmwx5gLxb5hsURjdZSCTDNo2Z2od33UxbNj4d23x7PqWTB04RlipkmK6woDkohU2m2xRpSRKA8MEGo44Fq4Z4HjMtu8ryCBW1bxbCxcvDSu+qliVAEJ9HMPJ4rMSLDkYOGz9a3qiUpSBUtoHaMQfmbUWWzGn0F11pabj17F7+TBm5FrVYRHYqmdkD37I1YWNGPyRk9jsCKDihiCh+CGG4mb5G+a26Roi2Y3EO6a3AqVCkMCWlN1H0h1Ix2182JTlmMErngJqiOzLuRHTTuFSMSCXI14+ZuinnUBfea1YkHaPWeIcMsqAyP2gXoJqhyR0hIezJ48a4m0VG0r8luwkqp2wkrQxneojkKkVpFmWYYuVw0HJHiHGhE0WqTuKhjxjijcMfI8o5CwiWM0QIU1HPrypiXuTq5jHj4nZTs2lvSBa6qmyjCTURdXaK3Dk1F0K/w5RctsnIh5AssRPPBEM6djt5N2EEl7k0gpADkUaUQXl07w75mdhpCCRvZPLAa4Cv7Sr3qtiz67eORvmqW5+xO0wTdJefBupr1ILaysZE63OqaPIhFTSNUIMAxn78tDcW7mhWFyZsFgEkQG/4jZ3mzzWPWEJYVUR54FVsfUaEYQUoYX+5gcVfg2HVCLQEMW0K3q0FVhukmiE3WZXWY1zWfinndkuTezG3whyzMogGUXMDdtzntANgfwUCQBTFnnle3KWOYyYEx0VpihevSMej2/SiK3muhUEPXBphhknRwMWJaHaJuDYB5YUCdfW1YvMjRn7APXWzDu5v0Krxde+n29j323N/18WN5bfp2fHo6v3Wtz/vXLDw6v6LJ5/8B);strokeColor=none;spacingTop=-3;spacingBottom=-3;spacingLeft=-3;spacingRight=-3;labelBackgroundColor=none;rounded=0;html=1;whiteSpace=wrap;" parent="32" vertex="1">
          <mxGeometry width="42" height="42" as="geometry" />
        </mxCell>
        <mxCell id="159" style="vsdxID=111;edgeStyle=none;dashed=1;startArrow=none;endArrow=block;startSize=5;endSize=2;strokeColor=#2e75b6;spacingTop=0;spacingBottom=0;spacingLeft=0;spacingRight=0;verticalAlign=middle;html=1;labelBackgroundColor=#ffffff;rounded=0;" parent="1" edge="1">
          <mxGeometry relative="1" as="geometry">
            <mxPoint x="-1" as="offset" />
            <Array as="points" />
            <mxPoint x="495" y="334" as="sourcePoint" />
            <mxPoint x="554" y="334" as="targetPoint" />
          </mxGeometry>
        </mxCell>
        <mxCell id="161" style="vsdxID=116;edgeStyle=none;startArrow=none;endArrow=none;startSize=5;endSize=5;strokeColor=#0078d7;spacingTop=0;spacingBottom=0;spacingLeft=0;spacingRight=0;verticalAlign=middle;html=1;labelBackgroundColor=#ffffff;rounded=0;" parent="1" edge="1">
          <mxGeometry relative="1" as="geometry">
            <Array as="points" />
            <mxPoint x="381" y="550" as="sourcePoint" />
            <mxPoint x="381" y="580" as="targetPoint" />
          </mxGeometry>
        </mxCell>
        <mxCell id="162" style="vsdxID=134;edgeStyle=none;startArrow=block;endArrow=none;startSize=2;endSize=2;strokeColor=#0078d7;spacingTop=0;spacingBottom=0;spacingLeft=0;spacingRight=0;verticalAlign=middle;html=1;labelBackgroundColor=#ffffff;rounded=0;entryX=0.967;entryY=0.519;entryDx=0;entryDy=0;entryPerimeter=0;" parent="1" target="83" edge="1">
          <mxGeometry relative="1" as="geometry">
            <Array as="points" />
            <mxPoint x="350" y="336" as="sourcePoint" />
            <mxPoint x="146" y="336" as="targetPoint" />
          </mxGeometry>
        </mxCell>
        <mxCell id="163" style="vsdxID=174;edgeStyle=none;startArrow=block;endArrow=none;startSize=2;endSize=2;strokeColor=#0078d7;spacingTop=0;spacingBottom=0;spacingLeft=0;spacingRight=0;verticalAlign=middle;html=1;labelBackgroundColor=#ffffff;rounded=0;entryX=1;entryY=0.5;entryDx=0;entryDy=0;" parent="1" target="119" edge="1">
          <mxGeometry relative="1" as="geometry">
            <Array as="points" />
            <mxPoint x="430" y="336" as="sourcePoint" />
            <mxPoint x="413" y="336" as="targetPoint" />
          </mxGeometry>
        </mxCell>
        <mxCell id="160" style="vsdxID=115;edgeStyle=none;startArrow=block;endArrow=none;startSize=2;endSize=5;strokeColor=#0078d7;spacingTop=0;spacingBottom=0;spacingLeft=0;spacingRight=0;verticalAlign=middle;html=1;labelBackgroundColor=#ffffff;rounded=0;" parent="1" edge="1">
          <mxGeometry relative="1" as="geometry">
            <Array as="points" />
            <mxPoint x="434" y="581" as="sourcePoint" />
            <mxPoint x="381" y="581" as="targetPoint" />
          </mxGeometry>
        </mxCell>
        <mxCell id="44" style="vsdxID=126;fillColor=none;gradientColor=none;strokeColor=none;labelBackgroundColor=none;rounded=0;html=1;whiteSpace=wrap;" parent="1" vertex="1">
          <mxGeometry x="232" y="129" width="76.5" height="60" as="geometry" />
        </mxCell>
        <mxCell id="45" style="vsdxID=127;fillColor=#59b4d9;gradientColor=none;shape=stencil(vVLLDsIgEPwajjQUTBPOVf+DWNoSEZot2vr3gqD2YTz04G13dnZnFwaxsm9FJxElvQN7loOqXIvYHlGqTCtBOR8hdkCsrC3IBuzVVDHvRGCG6GJvYcIY+0jooOQeM84yzp/IMZIFnHwVEnmXkTzyITUUGaEReVFm83KS5o9YjKrHYJ1wypqZthbQSOyVcK1FMyv1g5TdCk67aWUmh/Diq/LWO96br17mD7csxX9QNxJXH+2Dj0VqpXV02LS+tJSHoh3Z4QE=);strokeColor=none;strokeWidth=2;spacingTop=-3;spacingBottom=-3;spacingLeft=-3;spacingRight=-3;labelBackgroundColor=none;rounded=0;html=1;whiteSpace=wrap;" parent="44" vertex="1">
          <mxGeometry y="9" width="46" height="30" as="geometry" />
        </mxCell>
        <mxCell id="46" style="vsdxID=128;fillColor=#a0a1a2;gradientColor=none;shape=stencil(tZLdDoIwDIWfZpcjg4mRa8T3WGTA4txINwXf3uFAfkQvSLxre76uaXcQTU3Fao4iYizoC29EbitEjyiKhKo4COsiRDNE00IDL0HfVO7zmnVkF131vXuh9X3JvmuJyMOn5JWdPCmFmpC77yCDs1NgAAMSehZ6OIyDhPpSO20no36Iex2zVhgM2jIrtJrRkkHJsRuGC8nKmWQazuuP8uoei9HkBzqI2+D3UpuvtPo5fzmRC0aHFEJKb7CpvnSUK3k30uwJ);strokeColor=none;strokeWidth=2;spacingTop=-3;spacingBottom=-3;spacingLeft=-3;spacingRight=-3;labelBackgroundColor=none;rounded=0;html=1;whiteSpace=wrap;" parent="44" vertex="1">
          <mxGeometry width="46" height="11" as="geometry" />
        </mxCell>
        <mxCell id="47" style="vsdxID=129;fillColor=#FFFFFF;gradientColor=none;fillOpacity=20;strokeOpacity=20;shape=stencil(vVLREoIgEPwaHnFQ0sZns/9gEpWJxDko8e/DMNO0Xprp7W53j7vjFtFM16zlKCLagDrzThSmRvSAokg0NQdhXIRojmhWKuAVqGtT+Lxlg3KILuo2vGB93S6I06EoIr0HyCM7ei2Dk2Ng0iZeCv0T2IcesfNiMtHJ+LbFzAqNQRlmhGoWYsmg4th1wqVk1YLSHeftCh5nk6LhnzqncUB/2WP1KyEh/9okDRK62XtTPQ22db6l9PupXfDySCmk9Bab8++ecpD3I83v);strokeColor=none;strokeWidth=2;spacingTop=-3;spacingBottom=-3;spacingLeft=-3;spacingRight=-3;labelBackgroundColor=none;rounded=0;html=1;whiteSpace=wrap;" parent="44" vertex="1">
          <mxGeometry width="40" height="39" as="geometry" />
        </mxCell>
        <mxCell id="48" style="vsdxID=130;fillColor=#FFFFFF;gradientColor=none;shape=stencil(nZBLDoAgDERP0z3SIyjew0SURgSD+Lu9kMZoXLhwN9O+tukAlrNpJg1SzDH4QW/URgNYgZTkjA4UkwJUgGXng+6DX1zLfmoymdXo17xh5zmRJ6Q42BWCfc2oJfdAr+Yv+AP9Cb7OJ3H/2JG1HNGz/84klThPVCc=);strokeColor=none;strokeWidth=2;spacingTop=-3;spacingBottom=-3;spacingLeft=-3;spacingRight=-3;labelBackgroundColor=none;rounded=0;html=1;whiteSpace=wrap;" parent="44" vertex="1">
          <mxGeometry x="11" y="4" width="31" height="3" as="geometry" />
        </mxCell>
        <mxCell id="49" style="vsdxID=131;fillColor=#59b4d9;gradientColor=none;shape=stencil(lVHREoIgEPwaHnEQtHw3+w8mUZlInIOS/j4InVKnqd7udm/3Fg6x0nR8EIgSY0GfxShr2yF2QJTKvhMgra8QqxArGw2iBX3t69gPPEyG6qJvwcFFXUpI0FByj31eJHnxRI5xnMPJs+DWNIGNYvbM0iSjC9dph8PcSYNBW26l7hec4tAK7LfhRvF2ChcpMwoxbOBP+Xb7Tb4Z+vrmvxOSHxL64vX7jVQqHu+dX1/LQ/HSrHoA);strokeColor=none;strokeWidth=2;spacingTop=-3;spacingBottom=-3;spacingLeft=-3;spacingRight=-3;labelBackgroundColor=none;rounded=0;html=1;whiteSpace=wrap;" parent="44" vertex="1">
          <mxGeometry x="2" y="1" width="7" height="7" as="geometry" />
        </mxCell>
        <mxCell id="50" style="vsdxID=132;fillColor=#FFFFFF;gradientColor=none;shape=stencil(nZLdDoIwDIWfprdLtzqQa8T3IGHIIjIyhj9vL3MxgkYQ70677zRdeoDSrspbBQI7Z81RXXThKqAdCKGbSlntBgWUAaWlsepgTd8UoW5zT3p1Mmc/4Rp8MmI89i6Bt9DhiI96H/BaNyOcEhbT7zhOULlq8Az8ufQMLCKG08kbzjD+bnj+6E9cblnC16yzYFi80CBe1y11XYdwjN/f0zC0QpIouwM=);strokeColor=none;strokeWidth=2;spacingTop=-3;spacingBottom=-3;spacingLeft=-3;spacingRight=-3;labelBackgroundColor=none;rounded=0;html=1;whiteSpace=wrap;" parent="44" vertex="1">
          <mxGeometry x="3" y="3" width="6" height="5" as="geometry" />
        </mxCell>
        <mxCell id="51" value="&lt;font style=&quot;font-size:8px;font-family:Segoe UI;color:#2e75b6;direction:ltr;letter-spacing:0px;line-height:120%;opacity:1&quot;&gt;Pod autoscaling&lt;br/&gt;&lt;/font&gt;" style="verticalAlign=middle;align=center;vsdxID=168;fillColor=none;gradientColor=none;shape=stencil(nZBLDoAgDERP0z3SIyjew0SURgSD+Lu9kMZoXLhwN9O+tukAlrNpJg1SzDH4QW/URgNYgZTkjA4UkwJUgGXng+6DX1zLfmoymdXo17xh5zmRJ6Q42BWCfc2oJfdAr+Yv+AP9Cb7OJ3H/2JG1HNGz/84klThPVCc=);strokeColor=none;labelBackgroundColor=none;rounded=0;html=1;whiteSpace=wrap;" parent="1" vertex="1">
          <mxGeometry x="494" y="335" width="60" height="19" as="geometry" />
        </mxCell>
        <mxCell id="54" style="vsdxID=183;fillColor=none;gradientColor=none;labelBackgroundColor=none;rounded=0;strokeColor=none;html=1;whiteSpace=wrap;" parent="1" vertex="1">
          <mxGeometry x="688" y="530" width="24" height="13" as="geometry" />
        </mxCell>
        <mxCell id="55" style="vsdxID=184;fillColor=#ffffff;gradientColor=none;shape=stencil(nZBLDoAgDERP0z3SIyjew0SURgSD+Lu9kMZoXLhwN9O+tukAlrNpJg1SzDH4QW/URgNYgZTkjA4UkwJUgGXng+6DX1zLfmoymdXo17xh5zmRJ6Q42BWCfc2oJfdAr+Yv+AP9Cb7OJ3H/2JG1HNGz/84klThPVCc=);strokeColor=none;labelBackgroundColor=none;rounded=0;html=1;whiteSpace=wrap;" parent="54" vertex="1">
          <mxGeometry width="24" height="13" as="geometry" />
        </mxCell>
        <mxCell id="63" value="&lt;font style=&quot;font-size:11px;font-family:Segoe UI;color:#000000;direction:ltr;letter-spacing:0px;line-height:120%;opacity:1&quot;&gt;Ingress&lt;br/&gt;(API Gateway)&lt;br/&gt;&lt;/font&gt;" style="verticalAlign=middle;align=center;vsdxID=192;fillColor=none;gradientColor=none;shape=stencil(nZBLDoAgDERP0z3SIyjew0SURgSD+Lu9kMZoXLhwN9O+tukAlrNpJg1SzDH4QW/URgNYgZTkjA4UkwJUgGXng+6DX1zLfmoymdXo17xh5zmRJ6Q42BWCfc2oJfdAr+Yv+AP9Cb7OJ3H/2JG1HNGz/84klThPVCc=);strokeColor=none;labelBackgroundColor=none;rounded=0;html=1;whiteSpace=wrap;" parent="1" vertex="1">
          <mxGeometry x="332" y="358" width="92" height="35" as="geometry" />
        </mxCell>
        <mxCell id="64" value="&lt;font style=&quot;font-size:12px;font-family:Segoe UI;color:#0078d7;direction:ltr;letter-spacing:0px;line-height:120%;opacity:1&quot;&gt;Azure Kubernetes Service (AKS)&lt;br/&gt;&lt;/font&gt;" style="verticalAlign=middle;align=center;vsdxID=193;fillColor=none;gradientColor=none;shape=stencil(nZBLDoAgDERP0z3SIyjew0SURgSD+Lu9kMZoXLhwN9O+tukAlrNpJg1SzDH4QW/URgNYgZTkjA4UkwJUgGXng+6DX1zLfmoymdXo17xh5zmRJ6Q42BWCfc2oJfdAr+Yv+AP9Cb7OJ3H/2JG1HNGz/84klThPVCc=);strokeColor=none;labelBackgroundColor=none;rounded=0;html=1;whiteSpace=wrap;" parent="1" vertex="1">
          <mxGeometry x="318" y="219" width="180" height="27" as="geometry" />
        </mxCell>
        <mxCell id="167" style="vsdxID=267;edgeStyle=none;dashed=1;dashPattern=2.00 2.00;startArrow=block;endArrow=none;startSize=2;endSize=2;strokeColor=#7f7f7f;spacingTop=0;spacingBottom=0;spacingLeft=0;spacingRight=0;verticalAlign=middle;html=1;labelBackgroundColor=#ffffff;rounded=0;" parent="1" edge="1">
          <mxGeometry relative="1" as="geometry">
            <Array as="points" />
            <mxPoint x="209" y="476" as="sourcePoint" />
            <mxPoint x="152" y="476" as="targetPoint" />
          </mxGeometry>
        </mxCell>
        <mxCell id="168" style="vsdxID=273;edgeStyle=none;dashed=1;dashPattern=2.00 2.00;startArrow=block;endArrow=none;startSize=2;endSize=2;strokeColor=#7f7f7f;spacingTop=0;spacingBottom=0;spacingLeft=0;spacingRight=0;verticalAlign=middle;html=1;labelBackgroundColor=#ffffff;rounded=0;" parent="1" edge="1">
          <mxGeometry relative="1" as="geometry">
            <Array as="points" />
            <mxPoint x="316" y="448" as="sourcePoint" />
            <mxPoint x="200" y="448" as="targetPoint" />
          </mxGeometry>
        </mxCell>
        <mxCell id="169" style="vsdxID=276;edgeStyle=none;dashed=1;dashPattern=2.00 2.00;startArrow=block;endArrow=none;startSize=2;endSize=2;strokeColor=#7f7f7f;spacingTop=0;spacingBottom=0;spacingLeft=0;spacingRight=0;verticalAlign=middle;html=1;labelBackgroundColor=#ffffff;rounded=0;" parent="1" edge="1">
          <mxGeometry relative="1" as="geometry">
            <mxPoint x="-1" as="offset" />
            <Array as="points" />
            <mxPoint x="250" y="476" as="sourcePoint" />
            <mxPoint x="317" y="476" as="targetPoint" />
          </mxGeometry>
        </mxCell>
        <mxCell id="77" style="vsdxID=218;fillColor=none;gradientColor=none;strokeColor=none;spacingTop=-3;spacingBottom=-3;spacingLeft=-3;spacingRight=-3;labelBackgroundColor=none;rounded=0;html=1;whiteSpace=wrap;" parent="1" vertex="1">
          <mxGeometry x="549" y="562" width="38" height="38" as="geometry" />
        </mxCell>
        <mxCell id="78" style="vsdxID=219;fillColor=#0078d7;gradientColor=none;shape=stencil(lVnbctw2DP2afeWABK+PnTT9j0zj1J66dmbjtM7fF5BESgAp7vrprFc6Jg4I4sK94Kcfj1++P1wc/Hi7vv798N/T17fHC/5+ce7p5fHh+vRGny74+YKfvr1eH/66vv58+br+/f0Lv8mf/nn9l//D+8qzyQAyy8Gv9ZvgDJTlmz9Wwp8/ryvDNkrw2dpkGdxG3h6GYmwMLtkSGdaH72596MAgWBeCY4gbc3sYo7GYIQVkyBsTN2Yw1crtm2RNOpgJv5Glz08vB2nojY9CWnQmTKWhNQULIgRP4EqJnbogJSHQIt5jsAwewEtVIZjsk8uAyCBVERmclKW8P5B1x459mCBjgl2bBMF5k+PMcbx5ziLmwuCl12whdnYAGRew0oVLyKBNpTBk6T8y3kJOOUaGAjowdinNhTaakKcuPJI2gUVweoG8j5s6hqqhSlx2ssU2lJI6jT4n71MsBEFqpKgL4G32FhikQI7ZJAVSYG9hcybwjh38MEHGSMymRvNG8NZEPF8h09G6QdA+z2ASRg82MiiHR5OyDzZnx1CK9HfKxgOmGGIhSMrfbhBw1d/JmxKkv12m96f+jsEkL8RhMjgVRycmlQTJWkcQq4CmL5t4mkdjMrFmUYIWjNtjD8ba4nzMkaH5Bvutw+FWjBTe3m8ZIBSkLs5dIlegFA9BEJTfex9SPbG0EEKJDMqDaLaswWB11qHE4vdUj50Hs4sYSkaC2Lg1w6gD6ZMpduo+yi86+iVnUIuoWCZwxeXMIMV5b6zPAUOIDKV4VZa4OvpCCZMhd+p8e5ZUdBz3DYcbNy61tzZbRkcA8TZMd9kZzL5gcgwqD4DUDVKppKI+CSB1BlAitSUg1050DJfTux5iacnY6hp8ANKSoEypL5zbsiweILq0gC5I+wp6yWrD2HrUb9/rm50x3DbsMvSJ/XIjz/yjrVH1fRJd0zgslNOmoUitVLWYQApmMvR1fBOUDbkgZBsyg1N74Y59J0rtVMo+uBfjtY4aIMbiA0FqHWsL3KHGoYqde7JN1fRJGLPyLUSSU4f7bDU3crhyqZLRmdq2+n63jtebCXl3M5VDGbof0S6VIXo7+HVIy/jP2QQ5G3iqVP4yOQNMqZ18xiS9QFWtd1E7ApEe+gguWIaubaEmqo0QqFJ17svS8v7UFUySLQVzjuLU+2iaUcM1Ol/TiOnnhG6QIErbaq+yNrFjaX2fb/NnGyOY7HmcYNBNCy3dBk1QSYSZt93XGYtmW2sBZaynmQnbYKcs5YHCVi2qASfmPtNlVXoCGKcmOn5fD8XaVJ9pIHCeemMG7EwdLOhazFLXDyGHxFBK6KyN+7iQdBPh+d6ic+2WdSf2Unu6LriAspc63+PYW9StA5NbOqlH5dfu+rx1xAy9tap7DeycW9ZSO7cVJ4LDNcc+HjtbuwlUxvLO5K2VpUFH+5e4h1CJey97CAhtcqjj6iR2KfEdrmagDRf2xrKuxf42eTL01zo2hYQ8CxB0Z61di+1fudu5Sk4IijPIxJRP9wqn6hGzIYCDsoDKxJTD7T5BKm3UuJ3GDzOVNq4Y85I0rjLTTmtZZ60TBOp0MLlWkcN8exC338XoIkPc1lHYbrI7kRduxNp4yYO5/bjlJjoPti5N2tqr6cRz9OrBVt1x3bMVouDLDmGfUytB3a8NkgVNz3tdUHF5eqFXJ1dObfvgLj1ydpO4X9Q45RF1jTWaXfkiQAhU92tDgYPjs98hD27z9lpSYy+otH16hdhdMuziSr0bPBN3x+59mEAf9l8Tvj09P68/Rhyf618f6Kv1lwv8/D8=);strokeColor=none;spacingTop=-3;spacingBottom=-3;spacingLeft=-3;spacingRight=-3;labelBackgroundColor=none;rounded=0;html=1;whiteSpace=wrap;" parent="77" vertex="1">
          <mxGeometry width="38" height="38" as="geometry" />
        </mxCell>
        <mxCell id="79" value="&lt;font style=&quot;font-size:11px;font-family:Segoe UI;color:#0078d7;direction:ltr;letter-spacing:0px;line-height:120%;opacity:1&quot;&gt;Monitor&lt;br/&gt;&lt;/font&gt;" style="verticalAlign=middle;align=center;vsdxID=223;fillColor=none;gradientColor=none;shape=stencil(nZBLDoAgDERP0z3SIyjew0SURgSD+Lu9kMZoXLhwN9O+tukAlrNpJg1SzDH4QW/URgNYgZTkjA4UkwJUgGXng+6DX1zLfmoymdXo17xh5zmRJ6Q42BWCfc2oJfdAr+Yv+AP9Cb7OJ3H/2JG1HNGz/84klThPVCc=);strokeColor=none;labelBackgroundColor=none;rounded=0;html=1;whiteSpace=wrap;" parent="1" vertex="1">
          <mxGeometry x="537" y="603" width="60" height="21" as="geometry" />
        </mxCell>
        <mxCell id="80" value="&lt;font style=&quot;font-size:11px;font-family:Segoe UI;color:#0078d7;direction:ltr;letter-spacing:0px;line-height:120%;opacity:1&quot;&gt;Azure Active Directory&lt;br/&gt;&lt;/font&gt;" style="verticalAlign=middle;align=center;vsdxID=224;fillColor=none;gradientColor=none;shape=stencil(nZBLDoAgDERP0z3SIyjew0SURgSD+Lu9kMZoXLhwN9O+tukAlrNpJg1SzDH4QW/URgNYgZTkjA4UkwJUgGXng+6DX1zLfmoymdXo17xh5zmRJ6Q42BWCfc2oJfdAr+Yv+AP9Cb7OJ3H/2JG1HNGz/84klThPVCc=);strokeColor=none;labelBackgroundColor=none;rounded=0;html=1;whiteSpace=wrap;" parent="1" vertex="1">
          <mxGeometry x="419" y="603" width="92" height="35" as="geometry" />
        </mxCell>
        <mxCell id="81" style="vsdxID=230;fillColor=none;gradientColor=none;strokeColor=none;spacingTop=-3;spacingBottom=-3;spacingLeft=-3;spacingRight=-3;labelBackgroundColor=none;rounded=0;html=1;whiteSpace=wrap;" parent="1" vertex="1">
          <mxGeometry x="228" y="318" width="55" height="36" as="geometry" />
        </mxCell>
        <mxCell id="82" style="vsdxID=231;fillColor=#FFFFFF;gradientColor=none;shape=stencil(nVXbctowEP0av2r2Iu3lsZOm/5FpSGFKIeOQNv37rrENlggk0zdjnYPPZSV1fPeyfnhedQQvh37/c/Vn83hYd/y1I9rs1qt+c4inju87vnva96sf/f519zj+fn4YkMPTr/3v4R/eRp578jywCP6ObyzeHF98G/HbzW6Jh2RW4Tk5LfHfX/vxA3hiaCYR1swKNHGnRUjMXFi4lCwMCDKJeaNJjSVlJCDJAmVmT4swYfmERZwQvEQclcGXCzNIybwyA7ecBJxM3cyJC3DjpNaNkEilkBoVK9zovuqaT2zMtZM65nfMQIK6mKHIqpkLvNwsvrUfhFJUFKyYYTirAxjoxTEwmQo0NQ5cFQcwszwE4y51JjEmkIExs8e0zLXMgQz8Oo/AT2VfDaRyF/iiN9PILV7kgziIQQWixRjsjHUcjgmFlEXZGHKbR2Me42MY6SFyjnFvzDfOYwzbUbgQ14ixVGIMc2wRRG20cMphAJnRFK00yqJVKehCIGySSy0tJ+JGXRD8Zi8LzjztcL2YQMvn0Xqek0+gvSTNt+AXZ5mk2LDFNSp3dvc65pl9ivYYhsWQuCuwNdFaEjKMvSKWAdsT4D9aP5POQ8iOJqgYfyB6qc7yMHcap5A36mL+wTRWikjs7lre8tqYT9/q+Hin94+vmng431NPm+12vOaW6+29Fq/GO5Hv/wE=);strokeColor=#FFFFFF;strokeWidth=2;spacingTop=-3;spacingBottom=-3;spacingLeft=-3;spacingRight=-3;labelBackgroundColor=none;rounded=0;html=1;whiteSpace=wrap;" parent="81" vertex="1">
          <mxGeometry width="55" height="36" as="geometry" />
        </mxCell>
        <mxCell id="83" style="vsdxID=232;fillColor=#0078d7;gradientColor=none;shape=stencil(nVjRchs3DPwavXIAggTAx06a/kemcWpP3TjjOG36911KutMRdzpZ9ZMscY/AAlgAd5AP3x8/fXs4ZPr+9vry58M/T5/fHg/y6yHnp6+PD69Pb/h0kI8H+fDl5fXhj9eXH18/n/7/9qmf7J/+evm7P+HnCddaaqWjMv17+sbxzfGL307nn5++Ls9Tch/OS2p5ef73H6+nC3hGWMmqYkWM8hl7/pGSiFRRqbWoEJOejfmZz9Z4MuFMWYtSndDnH+l8VuazzOcTsjxxtIx+WTnDOXkbnKE9T3A8uzX3lqWSBE9Gu5lSNq3ZPFevEuy+6rXMaC6jJyPNG85QojEwPZBDZFbndTfw0X0AajU18urO8GwkoMNrY5wpuVIIY8eaNiJ3L52Y1nTkBGlChYSLNGTLFJaJkI4f+cD5c7CvEjJ4h/PVdtko8bzqDTqykCkhikjswiMdjRNrNlETFyqRj+A84zIGe8xSkO7B+eA50jCmwsq4YIynijQsKBFmC7ZIKnCARdiNvQbLEFWt3DSTimupo2klZQnWAdB247LATNlO1wOD0/r+03bJk3ecbjVZ2Tu+0jJNKNjaDCFv0lobaZ7QM7VHMhxJ0pqReKDWk2Zn1Ip6IY4K8D+ifgFdklAau7IxHqC2ts5LzzuDCrVgHfKf3PBLVUV1j+Yt28akvoN8bMT9dqsZW5N6KjacVxtyK15QLc1VeAUQGauaKuzISqUy0nw2kC8PgNwzeZbmI30V2dMM4t6yawt1o5pAPJ7HCHyUdyB9JE9rqn4jutv3TYb2qoL6okzRp2qw9JqXk7GCdgNVF261qs2/z/YuiJULpO6GW/MkoHM0RswqfFD0Md6lJOF7AM6p7d1QYs8zTTR0hRXpJSlIh/5JMR05t5oY4u/NrIdknR2IPDLIpUZV3UbKHC0JtRXM3E4P7f0XVhqbtGgqhFGQIFrRXTJPwrVIkA3sZCyaB1QPOlGlULttbEt1vzMXPHEIQ9epnRYAKRpHm3DFmgxARJsSs3b9C2Q0kIGmViDNaHsjFUCihrigGVvRGDdIEpS0GB6MxtkCGR0b6gTEW5TFDWM3rrxEjrWibZOBfVsZu+FmnpOmdymMW+4rCVpyekeSFQSKSATDeK4cTd2rh5KTZC4FPmJ2DoP8bj0AGXvNlqkhZ5DRQRsyiNxJshWgq89OVkpZtad9fQPl1PYBG5nRlN3RiRlDZItlfXwApFsq9z4TGMdQ6QpZZ9CqgfHeLxAM7FUNE7cExoFsI+PvaVDbF06mbjbEfMPPydrexzOmY8agxFt1R9FeuzWGZqjAjWnhFqBy6E+RkSOkrzPaOQmzRcH0Y5DUvt96DZUNpGVxdGMrFto15BNzPAoFXPFilZroENR2kKEj5Eb4hBMUEWJRexRCbV+9c1oi+ngq2IY0Q8dCsm17KgvkaG3gdSN4S9AZ0wm7p7wFQ43fA8jo6ANglf8FXbRgi+3Tem+ygUPsMth8+3hlUMJYrVjDGqaG44gXAp4x1uCRqFYM8YVX89kRO1LIfeO7Va9bV06rRB+9ekFi1XHsk/N+MpkLMhSpSQVZQaFNcn9JZOZq6ladKG6NPu3iF3tpehWzM+EgLcytIYvQgTKFjfvqrdOQI0n7pl77UDZ10tnka/7KAnw/xdt38iWs6ImNjosWaipoQEXHQiLBWdRVjjnRk8n7YumOIYEozuwYjkOD7wm8r4lL0KVKdl6boC3kEaAYZnaa4BqAqObdHa1DTq/RIB4c3jodpQWVByLU+o4ZOgvAXdOK9rXI586xlFJDXZlzf/kUGwualodEfY+SopEgYo55uWLzDlG/duVkcN96qRQp+PPw4vCqt7IAr7Q07wf97j37HQB8uLxx/vL0/Hx6Yb38Pb6hxlent9vy8T8=);strokeColor=none;spacingTop=-3;spacingBottom=-3;spacingLeft=-3;spacingRight=-3;labelBackgroundColor=none;rounded=0;html=1;whiteSpace=wrap;" parent="81" vertex="1">
          <mxGeometry width="55" height="36" as="geometry" />
        </mxCell>
        <mxCell id="84" value="&lt;font style=&quot;font-size:12px;font-family:Segoe UI;color:#0078d7;direction:ltr;letter-spacing:0px;line-height:120%;opacity:1&quot;&gt;Azure load balancer&lt;/font&gt;&lt;font style=&quot;font-size:12px;font-family:Segoe UI;color:#0078d7;direction:ltr;letter-spacing:0px;line-height:120%;opacity:1&quot;&gt;&lt;br/&gt;&lt;/font&gt;" style="text;vsdxID=230;fillColor=none;gradientColor=none;strokeColor=none;spacingTop=-3;spacingBottom=-3;spacingLeft=-3;spacingRight=-3;labelBackgroundColor=none;rounded=0;html=1;whiteSpace=wrap;verticalAlign=top;align=center;;html=1;" parent="81" vertex="1">
          <mxGeometry x="-23.28" y="40.78" width="101.6" height="44.45" as="geometry" />
        </mxCell>
        <mxCell id="85" style="vsdxID=265;fillColor=#0078d7;gradientColor=none;shape=stencil(lVjLctswDPwaXzEgwReOnTT5j0zjNJ6mccZJ2vTvC0USLQo2JPHAsSWuuMRjCXJHN29P96/7nce399Px1/7v4eH9aUffd94fXp72p8O7/NrR7Y5uHo+n/c/T8ePlof//et+N7H79Pv7pvvDZ4yhCTB3K47/+SUqA9PXkrgc8H15MQGHI4TogOnCuATjE68PHl/XrGVxZPzwxlLyFTCzABmCFfVqDhgKFW0CBzNdn0AAmiBZAUWIHyViDBmQETAZAWSk7yHELQIICjTVQhly2+FkDZA3BoqQdlyFs8oN42huZsMLTs1xTViIEMvwQEXKbObIEI9VKGb1UJyAIbgr48XHqKblq9hRzbQN4eOnFxMGhj6nrE6Lv33/6wQVFfHZuA9iPmQkDUHpkZhrAVK2bxvnoDJmYA79dIJxI8pVrawlfnXPglByQXu2ZcHG+eIxfPbNrCYtSlDgj7IDdAuFIUDDVhhhazkE8FKmE9NUzh5ZyELlJvraWMrYMp0lC0xHX2XkCzFRbSw1bKq6L39rwbP3xfbfSan9SBnST+KeaADkvULw6ratpNbFvrgZuaMfaWs4CplTtz5owzQiL1MYFwgG66K5txrYTFcyJ+76lii25ECCOgZFcaslhS6wLsyVi2FIRQWT9+WFuBk7n1M5zX2eGULLL3PWlZeY91ECl83CesZsJvN5z2NTrFWrayi/ryiUAGXsOeyDfAiKg2wLI4hVjhjLRwAoYVHYlQJ4EawYad4zpRmusQQOyh2hsOlnvzHY5ogGyb0VjDVnSoN3WpLowjKTHCyNnhFJSO7kUF2Rs/RrACMlYQoqQVM1mTaDGd4WtUe5EnrtNAFYd3wGoZSShZ82gy04JbsMNGiCrssoXnaASetsAKqNbCdDlf7f/WWWnmkEqKisyLpwXnJk+F04kZHpanXjs89p8eLAPFysstKSqUhdnIyw0YMFCWlUTQtwkw8E+XGhVldODM4yqAQvHyE5V22yLsvkaXtaABcdpVQ22WTUgptlhQctqKzGS4db+qQHBOPhrTSXbRBqwkDlaVKM3FUwDyDaRVmEK4CyN5PEQWylJAlpyobInGjbVo8kYfSGVEzjDoCtyf+lyRGo2byxXAwKbLtPHfjFotO46tImCWbPpuw6J07TpNkXilI1F67sO8aNZCisA2YJ3YdFVM9cD/KbbFOVp+XG+lXw8PD/3l5rT9/NbTHnU34DS7X8=);strokeColor=none;spacingTop=-3;spacingBottom=-3;spacingLeft=-3;spacingRight=-3;labelBackgroundColor=none;rounded=0;html=1;whiteSpace=wrap;" parent="1" vertex="1">
          <mxGeometry x="211" y="463" width="47" height="41" as="geometry" />
        </mxCell>
        <mxCell id="86" value="&lt;font style=&quot;font-size:11px;font-family:Segoe UI;color:#3f3f3f;direction:ltr;letter-spacing:0px;line-height:120%;opacity:1&quot;&gt;docker push&lt;br/&gt;&lt;/font&gt;" style="verticalAlign=middle;align=center;vsdxID=270;fillColor=none;gradientColor=none;shape=stencil(nZBLDoAgDERP0z3SIyjew0SURgSD+Lu9kMZoXLhwN9O+tukAlrNpJg1SzDH4QW/URgNYgZTkjA4UkwJUgGXng+6DX1zLfmoymdXo17xh5zmRJ6Q42BWCfc2oJfdAr+Yv+AP9Cb7OJ3H/2JG1HNGz/84klThPVCc=);strokeColor=none;labelBackgroundColor=none;rounded=0;html=1;whiteSpace=wrap;" parent="1" vertex="1">
          <mxGeometry x="152" y="478" width="60" height="35" as="geometry" />
        </mxCell>
        <mxCell id="87" value="&lt;font style=&quot;font-size:11px;font-family:Segoe UI;color:#3f3f3f;direction:ltr;letter-spacing:0px;line-height:120%;opacity:1&quot;&gt;helm upgrade&lt;br/&gt;&lt;/font&gt;" style="verticalAlign=middle;align=center;vsdxID=271;fillColor=none;gradientColor=none;shape=stencil(nZBLDoAgDERP0z3SIyjew0SURgSD+Lu9kMZoXLhwN9O+tukAlrNpJg1SzDH4QW/URgNYgZTkjA4UkwJUgGXng+6DX1zLfmoymdXo17xh5zmRJ6Q42BWCfc2oJfdAr+Yv+AP9Cb7OJ3H/2JG1HNGz/84klThPVCc=);strokeColor=none;labelBackgroundColor=none;rounded=0;html=1;whiteSpace=wrap;" parent="1" vertex="1">
          <mxGeometry x="215" y="429" width="107" height="19" as="geometry" />
        </mxCell>
        <mxCell id="88" value="&lt;font style=&quot;font-size:11px;font-family:Segoe UI;color:#3f3f3f;direction:ltr;letter-spacing:0px;line-height:120%;opacity:1&quot;&gt;docker pull&lt;br/&gt;&lt;/font&gt;" style="verticalAlign=middle;align=center;vsdxID=275;fillColor=none;gradientColor=none;shape=stencil(nZBLDoAgDERP0z3SIyjew0SURgSD+Lu9kMZoXLhwN9O+tukAlrNpJg1SzDH4QW/URgNYgZTkjA4UkwJUgGXng+6DX1zLfmoymdXo17xh5zmRJ6Q42BWCfc2oJfdAr+Yv+AP9Cb7OJ3H/2JG1HNGz/84klThPVCc=);strokeColor=none;labelBackgroundColor=none;rounded=0;html=1;whiteSpace=wrap;" parent="1" vertex="1">
          <mxGeometry x="269" y="482" width="47" height="28" as="geometry" />
        </mxCell>
        <mxCell id="177" style="vsdxID=388;edgeStyle=none;startArrow=block;endArrow=none;startSize=2;endSize=5;strokeColor=#0078d7;spacingTop=0;spacingBottom=0;spacingLeft=0;spacingRight=0;verticalAlign=middle;html=1;labelBackgroundColor=#ffffff;rounded=0;" parent="1" edge="1">
          <mxGeometry relative="1" as="geometry">
            <Array as="points" />
            <mxPoint x="434" y="592" as="sourcePoint" />
            <mxPoint x="139" y="592" as="targetPoint" />
          </mxGeometry>
        </mxCell>
        <mxCell id="101" style="vsdxID=301;fillColor=none;gradientColor=none;labelBackgroundColor=none;rounded=0;strokeColor=none;html=1;whiteSpace=wrap;" parent="1" vertex="1">
          <mxGeometry x="444" y="313" width="46" height="46" as="geometry" />
        </mxCell>
        <mxCell id="102" value="" style="verticalAlign=top;align=center;vsdxID=302;fillColor=#FFFFFF;gradientColor=none;shape=stencil(vVHLDsIgEPwajiQI6RfU+h8bu22JCGRB2/69kG1iazx58DazM/vIjjBtmiCi0CplCjecbZ8nYc5Ca+snJJsLEqYTph0C4Ujh4XvmEaqzont41gkL96naodXKrGF6YSfQtUi0OXXDVlqPfJNP6usotUhYbJIUMmQb/GGrAxpRljVycDBuc1hKM2LclX8/7H9nFfB+82Cd45T2+mcspcSRmu4F);strokeColor=#7f7f7f;labelBackgroundColor=none;rounded=0;html=1;whiteSpace=wrap;" parent="101" vertex="1">
          <mxGeometry width="46" height="46" as="geometry" />
        </mxCell>
        <mxCell id="103" style="vsdxID=303;fillColor=none;gradientColor=none;labelBackgroundColor=none;rounded=0;strokeColor=none;html=1;whiteSpace=wrap;" parent="101" vertex="1">
          <mxGeometry x="13" y="10" width="20" height="24" as="geometry" />
        </mxCell>
        <mxCell id="104" style="vsdxID=304;fillColor=#dbeef3;gradientColor=none;shape=stencil(lZDRDoIwDEW/pq+krBh8R/wPEoZrnBsZE/Xv3WyMYDTGt9v23Ka9QM1kulGDwikGf9QX7qMB2oFS7IwOHJMCaoGawQd9CP7seqnHLpNZnfycN1zFVyJmj8Kb1FVdYP3o7AW37Bb4Zk3jd/KvtdW2wHJleN71Ef95dBKvhwe2VvJazt8DSi0Jl9o7);strokeColor=none;spacingTop=-3;spacingBottom=-3;spacingLeft=-3;spacingRight=-3;labelBackgroundColor=none;rounded=0;html=1;whiteSpace=wrap;" parent="103" vertex="1">
          <mxGeometry width="19" height="13" as="geometry" />
        </mxCell>
        <mxCell id="105" style="vsdxID=305;fillColor=#dbeef3;gradientColor=none;shape=stencil(UzV2Ls5ILEhVNTIoLinKz04tz0wpyVA1dlE1MsrMy0gtyiwBslSNXVWNndPyi1LTi/JL81Ig/IJEkEoQKze/DGRCBUSfoYEBSI+RQSUq3w2iOCczD0mxKapaPCpRFVpa6pkZIisGMhAOSsvMyYH4B1ke3QNAIYjnjV0B);strokeColor=#556a8a;spacingTop=-3;spacingBottom=-3;spacingLeft=-3;spacingRight=-3;labelBackgroundColor=none;rounded=0;html=1;whiteSpace=wrap;" parent="103" vertex="1">
          <mxGeometry width="20" height="6" as="geometry" />
        </mxCell>
        <mxCell id="106" style="vsdxID=306;fillColor=#dbeef3;gradientColor=none;shape=stencil(jZHdDsIgDIWfprdLpUMfYM73WDImRISF4d/bCzbGSTLd3Wn79eSkBWom3Y0KBE4x+JO6mT5qoD0IYZxWwcSkgFqgZvBBHYO/uJ7rsctkVmd/zQ533sO8IfDB1VZW9e7VOTBsjZvB8pveIC6z7+FK6xL/4VykoLqStEyvtv0TN4nPDQdjLb9gPi9vnlr8L2qf);strokeColor=#556a8a;spacingTop=-3;spacingBottom=-3;spacingLeft=-3;spacingRight=-3;labelBackgroundColor=none;rounded=0;html=1;whiteSpace=wrap;" parent="103" vertex="1">
          <mxGeometry y="6" width="19" height="18" as="geometry" />
        </mxCell>
        <mxCell id="172" style="vsdxID=307;edgeStyle=none;startArrow=none;endArrow=none;startSize=5;endSize=5;strokeColor=#556a8a;spacingTop=0;spacingBottom=0;spacingLeft=0;spacingRight=0;verticalAlign=middle;html=1;labelBackgroundColor=#ffffff;rounded=0;" parent="103" edge="1">
          <mxGeometry relative="1" as="geometry">
            <Array as="points" />
            <mxPoint x="10" y="12" as="sourcePoint" />
            <mxPoint x="10" y="24" as="targetPoint" />
          </mxGeometry>
        </mxCell>
        <mxCell id="119" style="vsdxID=343;fillColor=none;gradientColor=none;labelBackgroundColor=none;rounded=0;strokeColor=none;html=1;whiteSpace=wrap;" parent="1" vertex="1">
          <mxGeometry x="354" y="313" width="46" height="46" as="geometry" />
        </mxCell>
        <mxCell id="120" value="" style="verticalAlign=top;align=center;vsdxID=337;fillColor=#FFFFFF;gradientColor=none;shape=stencil(vVHLDsIgEPwajiQI6RfU+h8bu22JCGRB2/69kG1iazx58DazM/vIjjBtmiCi0CplCjecbZ8nYc5Ca+snJJsLEqYTph0C4Ujh4XvmEaqzont41gkL96naodXKrGF6YSfQtUi0OXXDVlqPfJNP6usotUhYbJIUMmQb/GGrAxpRljVycDBuc1hKM2LclX8/7H9nFfB+82Cd45T2+mcspcSRmu4F);strokeColor=#7f7f7f;labelBackgroundColor=none;rounded=0;html=1;whiteSpace=wrap;" parent="119" vertex="1">
          <mxGeometry width="46" height="46" as="geometry" />
        </mxCell>
        <mxCell id="121" style="vsdxID=23;fillColor=none;gradientColor=none;image;aspect=fixed;image=data:image/png,iVBORw0KGgoAAAANSUhEUgAAADsAAABECAIAAACwM9rwAAACVElEQVR4nOXawXHCMBAF0JUnjRBKSC6hkrRADTnTQmiBNnLhBCUAF5oIF+WwxBhbkne1X7YZ/gVmEsSbnZWsQXLee3qovMBHdOsFv5n9/PKb42aPHB9b45pLDTEH5YaJm1ZOS8yxuwHirpUTFJMZbRXHuBQXc7Ld+eKElZMWczLcOeJeK0ciJj1aJxZaOUIxR+5WiFVcUoo5ErdIrLVyMsSctLtHnGflZIspiU6JLVyyiTlBd1hstHLsYk7L3RZDrByUmO7RNzHQygGKOey+iuFcKiDmVFSGWy7V2AB1qrwC++XWL7fG7z5u9jk7Ifr+UH2gC9XujzlN6+vnmxyg64pgXTPq3SqtqtKwPrY3iTAPOPOAYw1TZnCNB0Dju6I0ukgfF0WXmnnl0E+5VsSeedgfCOtgajwkGtYVg6GRfTwM+ilnXjMDlBld4/PFfb0H/4JCQ8XnC78WRYPE50vN5ZRDI8T31jqF0E+/VrQSK7MlxWsMR2vEkX7tjQR9mjvhaDJxZynQRoiWuAVim7WOsD163UmxubTZOc1dbBGMiCPWbp1UE0v7z8Fih35366urX+0yBMERhOPMDreDhHvxSD0gDLud996tFxO31pkdfEU09dI2c5q7ijpdNeX41e7udKzENgAYrmzgBHKC7mYXRE95J+LudmzyXHpUdGx29d9WGMWdWAykN0IGc/cuXMpbNyXdwkVWfbOpBFr1QMi8PQZ0a59fpht6RnfesxZxC1LvtuwLMDdN5Wj7HgZ5mzftRu23wPePKeIGbg/x4uu4/274VvYPeI1lfaDCoMIAAAAASUVORK5CYII=;strokeColor=none;labelBackgroundColor=none;rounded=0;html=1;whiteSpace=wrap;" parent="119" vertex="1">
          <mxGeometry x="12" y="10" width="22" height="26" as="geometry" />
        </mxCell>
        <mxCell id="122" style="vsdxID=344;fillColor=none;gradientColor=none;labelBackgroundColor=none;rounded=0;strokeColor=none;html=1;whiteSpace=wrap;" parent="1" vertex="1">
          <mxGeometry x="559" y="313" width="46" height="46" as="geometry" />
        </mxCell>
        <mxCell id="123" value="" style="verticalAlign=top;align=center;vsdxID=345;fillColor=#FFFFFF;gradientColor=none;shape=stencil(vVHLDsIgEPwajiQI6RfU+h8bu22JCGRB2/69kG1iazx58DazM/vIjjBtmiCi0CplCjecbZ8nYc5Ca+snJJsLEqYTph0C4Ujh4XvmEaqzont41gkL96naodXKrGF6YSfQtUi0OXXDVlqPfJNP6usotUhYbJIUMmQb/GGrAxpRljVycDBuc1hKM2LclX8/7H9nFfB+82Cd45T2+mcspcSRmu4F);strokeColor=#7f7f7f;labelBackgroundColor=none;rounded=0;html=1;whiteSpace=wrap;" parent="122" vertex="1">
          <mxGeometry width="46" height="46" as="geometry" />
        </mxCell>
        <mxCell id="124" style="vsdxID=346;fillColor=none;gradientColor=none;labelBackgroundColor=none;rounded=0;strokeColor=none;html=1;whiteSpace=wrap;" parent="122" vertex="1">
          <mxGeometry x="13" y="10" width="20" height="24" as="geometry" />
        </mxCell>
        <mxCell id="125" style="vsdxID=347;fillColor=#dbeef3;gradientColor=none;shape=stencil(lZDRDoIwDEW/pq+krBh8R/wPEoZrnBsZE/Xv3WyMYDTGt9v23Ka9QM1kulGDwikGf9QX7qMB2oFS7IwOHJMCaoGawQd9CP7seqnHLpNZnfycN1zFVyJmj8Kb1FVdYP3o7AW37Bb4Zk3jd/KvtdW2wHJleN71Ef95dBKvhwe2VvJazt8DSi0Jl9o7);strokeColor=none;spacingTop=-3;spacingBottom=-3;spacingLeft=-3;spacingRight=-3;labelBackgroundColor=none;rounded=0;html=1;whiteSpace=wrap;" parent="124" vertex="1">
          <mxGeometry width="19" height="13" as="geometry" />
        </mxCell>
        <mxCell id="126" style="vsdxID=348;fillColor=#dbeef3;gradientColor=none;shape=stencil(UzV2Ls5ILEhVNTIoLinKz04tz0wpyVA1dlE1MsrMy0gtyiwBslSNXVWNndPyi1LTi/JL81Ig/IJEkEoQKze/DGRCBUSfoYEBSI+RQSUq3w2iOCczD0mxKapaPCpRFVpa6pkZIisGMhAOSsvMyYH4B1ke3QNAIYjnjV0B);strokeColor=#556a8a;spacingTop=-3;spacingBottom=-3;spacingLeft=-3;spacingRight=-3;labelBackgroundColor=none;rounded=0;html=1;whiteSpace=wrap;" parent="124" vertex="1">
          <mxGeometry width="20" height="6" as="geometry" />
        </mxCell>
        <mxCell id="127" style="vsdxID=349;fillColor=#dbeef3;gradientColor=none;shape=stencil(jZHdDsIgDIWfprdLpUMfYM73WDImRISF4d/bCzbGSTLd3Wn79eSkBWom3Y0KBE4x+JO6mT5qoD0IYZxWwcSkgFqgZvBBHYO/uJ7rsctkVmd/zQ533sO8IfDB1VZW9e7VOTBsjZvB8pveIC6z7+FK6xL/4VykoLqStEyvtv0TN4nPDQdjLb9gPi9vnlr8L2qf);strokeColor=#556a8a;spacingTop=-3;spacingBottom=-3;spacingLeft=-3;spacingRight=-3;labelBackgroundColor=none;rounded=0;html=1;whiteSpace=wrap;" parent="124" vertex="1">
          <mxGeometry y="6" width="19" height="18" as="geometry" />
        </mxCell>
        <mxCell id="175" style="vsdxID=350;edgeStyle=none;startArrow=none;endArrow=none;startSize=5;endSize=5;strokeColor=#556a8a;spacingTop=0;spacingBottom=0;spacingLeft=0;spacingRight=0;verticalAlign=middle;html=1;labelBackgroundColor=#ffffff;rounded=0;" parent="124" edge="1">
          <mxGeometry relative="1" as="geometry">
            <Array as="points" />
            <mxPoint x="10" y="12" as="sourcePoint" />
            <mxPoint x="10" y="24" as="targetPoint" />
          </mxGeometry>
        </mxCell>
        <mxCell id="136" style="vsdxID=374;fillColor=none;gradientColor=none;strokeColor=none;spacingTop=-3;spacingBottom=-3;spacingLeft=-3;spacingRight=-3;labelBackgroundColor=none;rounded=0;html=1;whiteSpace=wrap;" parent="1" vertex="1">
          <mxGeometry x="649" y="558" width="36" height="42" as="geometry" />
        </mxCell>
        <mxCell id="137" style="vsdxID=375;fillColor=#FFFFFF;gradientColor=none;shape=stencil(lZZLctswDIZPoy0GDxIAl500uUemcWpP3TjjJG16+5KmZJm0Yo93EgEIH6EfIAe5e1s/vq4Gxrf3/e7X6u/m6X09yPeBefOyXu037/lpkPtB7p53+9XP/e7j5am+vz4Wz/L0e/enfOGzxhFiiWH8V99DBDosPFTvHx/76k69/7jABozRnSVyCpSSV/snV3siYIukZh6zzxg8GokASxSZBsM4B0u1W4LAY8i4hDA6HQDx2wJjiSKXECIlJG15CUqmiReRpeXNwZSCCrpxcGl5GTQpmgchMU5Jz3AptbgyrVzEXcg4Gh3ilC6GhBg7Wgc0RWWV5ExddRlSLsBIjOfVVUBtcclA4xVeJ3BLE3LHywGsgNaskpK1wK55Q0ZOjI4xtMASwFESU1RX7mhLpLe0rViXYRfzjUY1qKksREyO1BUXgYOiRyQi15bVI2CYq9uyRgSilrX4X6ssJ0hmeecqUYJ1SlhMOP1qAQ0ahYN4sKyTTgpf7VTm8Hhzbb9MSsffiXPOrrhFaSZiftCvIPatFoD12KpdfbOReuUqpGvAuX/FSEboTgy5W8biFAXqEWgCzpODY25WDWXecUub2/A4AslS6nlL7M2DYTnjZGzGbqYNN+CWITo3Wh4S57yh6zW81mhQ2yR/kYW7oZtO+9oQO1Zs6Vj7Gd3S4XCrUrszyyKcdFInzGWRTKqdjr8LnT75XJj4BuUwDJ6Fwu4t3JyizzlBtPhdcWbvr8uz3bzccAXID/Pt4Xmz3dbLx6m9v23kpXpTkfv/);strokeColor=#FFFFFF;strokeWidth=2;spacingTop=-3;spacingBottom=-3;spacingLeft=-3;spacingRight=-3;labelBackgroundColor=none;rounded=0;html=1;whiteSpace=wrap;" parent="136" vertex="1">
          <mxGeometry y="9" width="36" height="33" as="geometry" />
        </mxCell>
        <mxCell id="138" style="vsdxID=376;fillColor=none;gradientColor=none;strokeColor=none;spacingTop=-3;spacingBottom=-3;spacingLeft=-3;spacingRight=-3;labelBackgroundColor=none;rounded=0;html=1;whiteSpace=wrap;" parent="136" vertex="1">
          <mxGeometry x="8" width="20" height="35" as="geometry" />
        </mxCell>
        <mxCell id="139" style="vsdxID=377;fillColor=#FFFFFF;gradientColor=none;shape=stencil(pZTbboJAEIafhtvJHPZ42Vj7HqZiIaVgEFv79gV3KyxRGypXMzv/v3wZhslkdSg2+zxjPHRt855/lduuyOQ5Yy7rIm/Lro8yWWey2jVt/tY2x3ob8v1mUA7RR/M53HAKPmGwanAxfocTQjznL0FelfVduUdwfNtABPohvRVQsgRosUEz+Kn+9diGDlFEEmCrRAw7IWeiNxaVBxRxZBRrYgrFE4ciRm1MxYFRVhR7r8n4qJVUG1O2wBMqfLoChikKMfR8TqG23qLvn5SGGbQxYsk4UmRSNkxp9AwH/0CxFi4d0k6lYJhy/A7Y5d03wWVuWNCc0UT3uh8RnAHLY3eQUsLrXznSmJ7GpIDpSJ350imcev712z0m74NxIezKqgr7ZFqfL5D+KCwfWf8A);strokeColor=none;spacingTop=-3;spacingBottom=-3;spacingLeft=-3;spacingRight=-3;labelBackgroundColor=none;rounded=0;html=1;whiteSpace=wrap;" parent="138" vertex="1">
          <mxGeometry width="18" height="33" as="geometry" />
        </mxCell>
        <mxCell id="140" style="vsdxID=378;fillColor=#FFFFFF;gradientColor=none;shape=stencil(pVZdc9sgEPw1er25D+C4x06a/I9M49SeunbGcdr03xcHqRJIlqLaDx4Mu2Y59nZo5O51+/iyaRhfz6fjj83v3dN528jXhnl32G5Ou3MaNXLfyN3z8bT5fjq+HZ7y75fHC/Iy+nn8dfmH98zzCHwhMf7JEw4CfUw8ZPi3t1PGU15XARdMoqr3hB2X/pExsjkTjOoRnc/r75zXjYGdi6bmjaJrye0ieWBUUWGlGKOZtmQZkFtKO8URxPVq8cuE4Ok920UxIEWPwSiBGKnUqwYXkgSVdOhKr4tAPoTIyBp8qTUwYKXVU4JXWve7w+AuhqRWuwex4W2UBImg8TZCDBDcdQKl+txI0GQKv0bSakJV2bEFmIAHHqg8mzwUFS2oOjIpDRDBKzmO+dtKA1wzj/Tc9XZNpgrCwQsGSluUWq+2SKuIA/StibVfrzVnZ9A+CmQqCz7kLqQHzl4DQ38JolinB5aHwSoeGIJyJEJvhrHUjusLjeXm6TKDkEhw6FPx6ySgueRyBhrMR89enE/ySnEyKqx3yXOzWSB1ZRUBZ7qCxm20QMDucv+fMN+oY8JSdowIRl3kf/LQC4RRVVfjF/K1xhPiDDq5VD8PD5QcugJuEG9AL5x0hK8sPRFsCl0uYaRQdp+vet8MbPAZ5e5kq0p5zlVp0JO6icm46d4FCoOjSCkPSznjWMVKS1nZ+Uxdg02D/tn3vNvv86txuF4/E9NUfmLK/V8=);strokeColor=none;spacingTop=-3;spacingBottom=-3;spacingLeft=-3;spacingRight=-3;labelBackgroundColor=none;rounded=0;html=1;whiteSpace=wrap;" parent="138" vertex="1">
          <mxGeometry width="20" height="35" as="geometry" />
        </mxCell>
        <mxCell id="141" style="vsdxID=379;fillColor=none;gradientColor=none;strokeColor=none;spacingTop=-3;spacingBottom=-3;spacingLeft=-3;spacingRight=-3;labelBackgroundColor=none;rounded=0;html=1;whiteSpace=wrap;" parent="136" vertex="1">
          <mxGeometry y="1" width="36" height="40" as="geometry" />
        </mxCell>
        <mxCell id="142" style="vsdxID=380;fillColor=#0078d7;gradientColor=none;shape=stencil(nZZNctswDIVPoy0GBPiHZSdN75FpnNgT184oTuvevlRIihIiRUk3HpnkEz4+AqA6vnnZ3z3vOsKXS39+2v053F/2HX/viA6n/a4/XNJTx7cd3zyc+91jf3493ef/z3fDyuHp1/n38IZr1hnEQUP4N/+3Dti+jfzIy3++9nm90YIyQAGsQ4nIQsZ5Ec7zV8rzQmBicEVUBo2B4G1AFyOxIxEpIs7zEYF9kZShpKAGht8W2AaVC8ZSHH5ZcQKN4WzaRdnmyLkspipOGlOREa3f5GUoL/lP3giVdYgronCDAJoQq1zZyyDNXItIc9wQkljZG4HjFi9BNOSUrw6soBGPIVpGkah89enFKTcyqoxxyzRbqKkTPYVkrXLWV64RNeWo2SJdCVqmfYASL6euUd4iYKzi6GpyVuToACdbnvM6nMMOi90GLQmIwTERVB4sRmsH7Y0fpXPOtV1y09KXnV2OaMbDxBZQuWoCeG5nogrMArWGoDxNk0anq0+WbdlKwFRNpThHNQSh9S2f+sGcNvWb1C94ub5iyo9Wna3lcdMqXgYjW7iLET/ZvT7ERZBJjYnge96x+5Qh3CowsHHVW1kpaZq+ux29B/tRs1IF9YkcVTdUmHUolZXLSVJTtl52a9VdF6yzpFbrW5vGsZfo6/SqQ1aGRB/aPRBUDeN7d6b39xvS8XD6yo2fHtrXwsPheMwfG9N5/XWRhvKXCd/+Aw==);strokeColor=none;spacingTop=-3;spacingBottom=-3;spacingLeft=-3;spacingRight=-3;labelBackgroundColor=none;rounded=0;html=1;whiteSpace=wrap;" parent="141" vertex="1">
          <mxGeometry y="7" width="36" height="33" as="geometry" />
        </mxCell>
        <mxCell id="143" style="vsdxID=381;fillColor=#0078d7;gradientColor=none;shape=stencil(pVXbUuMwDP2avGp09eVxh4X/YKBsM9ttmVB24e9xcEJjN2m2w4vGcnTiI+nIbuTmZXv/vGkYX47d4ffmX/t43Dbys2Fu99tN1x7TqpHbRm6eDt3mV3d43T9m//m+j+xXfw5/+z+8ZZwhsPYoxve8g5/eXQ5+eO1yNOWPzKASkbMZgTRF4hsX7vvgEoHzRuwiipki8hAuZfjgsgPSExX8McMGy/MlAHpCZzHEoD5GKwmRATFFG0xJTz1EF02F1DMGpJKdJDolQSNgXxHctftJbSeYvOE9kJuWt4wnBhe+B4gIcgFwxujaeEJcjnYC8RvRVUHP2x0Ugg+o2YyJDx81QOIrhmwS0Fedx0qMi1KRGnCFHE8gWpE8f7XXHEY/mJIiloymg1pMzJL6ViZ77RogAU+XupH6p6ROBlNlntBoFiSlJaoxSpW5wgSrZeYUgUMURUKypNG6OT3Yrm/P/Jnj3cEQo8YkDPNhHKqR7XyqJyl9QpBRUN1q1/r4sEJVfJKnkB/M2TU3cyB/FUImXCuqs0nKBHl9VdkgmDjLxpVUFzvJl/LkFQ0t17YS7X9NxZnQ0+L0Wj61u11+bKff69c1beWXWW4/AA==);strokeColor=none;spacingTop=-3;spacingBottom=-3;spacingLeft=-3;spacingRight=-3;labelBackgroundColor=none;rounded=0;html=1;whiteSpace=wrap;" parent="141" vertex="1">
          <mxGeometry x="10" width="16" height="32" as="geometry" />
        </mxCell>
        <mxCell id="144" value="&lt;font style=&quot;font-size:12px;font-family:0;color:#0078d7;direction:ltr;letter-spacing:0px;line-height:120%;opacity:1&quot;&gt;Azure Key Vault&lt;br/&gt;&lt;/font&gt;" style="text;vsdxID=374;fillColor=none;gradientColor=none;strokeColor=none;spacingTop=-3;spacingBottom=-3;spacingLeft=-3;spacingRight=-3;labelBackgroundColor=none;rounded=0;html=1;whiteSpace=wrap;verticalAlign=top;align=center;;html=1;" parent="136" vertex="1">
          <mxGeometry x="-19.03" y="46.84" width="76.11" height="42.48" as="geometry" />
        </mxCell>
        <mxCell id="147" style="vsdxID=385;fillColor=none;gradientColor=none;strokeColor=none;labelBackgroundColor=none;rounded=0;html=1;whiteSpace=wrap;" parent="1" vertex="1">
          <mxGeometry x="108" y="568" width="17" height="47" as="geometry" />
        </mxCell>
        <mxCell id="148" style="vsdxID=386;fillColor=#2e75b5;gradientColor=none;shape=stencil(fZLRDoIwDEW/Zq+krAjh0aD+BxEQIgIZoNvfOyyIm4NkD+162510l2HSl2mXMw79INp7/qqyoWR4YpxXTZmLatARwzPDpGhFfhPt2GSUd+mknKJH+5wmSOqDqYODouxA6YWU11GQ1De1c8q5F0Ac0/GpJvl2TXFjjETjTVD4W/4gwNFBEUVeGIQYz8dkAhPDBzDfdjKjLcb/bThR1o49tgXGDW6Tbq1lEWzTOHduk0rzE9Qem0RTu7UWHa/2Kqq6Jnd+faQD2476iqyM5zc=);strokeColor=none;strokeWidth=0;labelBackgroundColor=none;rounded=0;html=1;whiteSpace=wrap;" parent="147" vertex="1">
          <mxGeometry x="3" width="10" height="10" as="geometry" />
        </mxCell>
        <mxCell id="149" style="vsdxID=387;fillColor=#2e75b5;gradientColor=none;shape=stencil(1ZbJUsMwDIafJlePFluWjgzLezC00A5LmVCgvD0OgZYE2yQ9wU2J/z/55E1q+PRpdfm4bAietu3mdvm6XmxXDZ81ROuH1bJdb1PU8HnDp9ebdnnTbp4fFv3z42Wn7KL7zUv3hV3vU3RInYvgrX8DH08Xvfjque3V2A+iOkMFhBhIVD+N+N0JO6ppaajlmpZ/EMFJBip5wQcxNfKRsQoFQwzvPHFIPmMyBeAhFgxBzHkAZA9eKcQU/gIGQ5SAji1lCBKBPFbB8to8Vk47HUocSySjFBKMoPIz+zko4GL0SCoqTHHGguacZeDqnstDTNmBfwLfwAmKEJqyoacZ/AXrlASy1mMzCC4Yo3Bg1eiHCZA4ORhpmADC6BLgpDYOXlkjWBwyf6nLmMIuHU0IHIW9H10Dh59RTV1Cy6sno8VkD+zNS0oyyC9o3Z2MIRiyRQ2jVc9ON1eMx6159lNTzlwNvnrkavDzTtx/ZreuHhtwuo0VZA78fhvtS0j2Zuex+qgicrB/cWdLYxmupC/hzS29PwBLlZ5q855vVr73TIUWJcWHjut6fXfXN2z7vioF4w4tveq7Oz5/Bw==);strokeColor=none;strokeWidth=0;labelBackgroundColor=none;rounded=0;html=1;whiteSpace=wrap;" parent="147" vertex="1">
          <mxGeometry y="11" width="17" height="35" as="geometry" />
        </mxCell>
        <mxCell id="150" value="&lt;font style=&quot;font-size: 11px ; font-family: &amp;#34;segoe ui&amp;#34; ; color: #0078d7 ; direction: ltr ; letter-spacing: 0px ; line-height: 120% ; opacity: 1&quot;&gt;ACR&lt;br&gt;&lt;/font&gt;" style="verticalAlign=middle;align=center;vsdxID=390;fillColor=none;gradientColor=none;shape=stencil(nZBLDoAgDERP0z3SIyjew0SURgSD+Lu9kMZoXLhwN9O+tukAlrNpJg1SzDH4QW/URgNYgZTkjA4UkwJUgGXng+6DX1zLfmoymdXo17xh5zmRJ6Q42BWCfc2oJfdAr+Yv+AP9Cb7OJ3H/2JG1HNGz/84klThPVCc=);strokeColor=none;labelBackgroundColor=none;rounded=0;html=1;whiteSpace=wrap;" parent="1" vertex="1">
          <mxGeometry x="188.5" y="494" width="92" height="35" as="geometry" />
        </mxCell>
        <mxCell id="157" value="&lt;font style=&quot;font-size:11px;font-family:Segoe UI;color:#3f3f3f;direction:ltr;letter-spacing:0px;line-height:120%;opacity:1&quot;&gt;RBAC&lt;br/&gt;&lt;/font&gt;" style="verticalAlign=middle;align=center;vsdxID=394;fillColor=none;gradientColor=none;shape=stencil(nZBLDoAgDERP0z3SIyjew0SURgSD+Lu9kMZoXLhwN9O+tukAlrNpJg1SzDH4QW/URgNYgZTkjA4UkwJUgGXng+6DX1zLfmoymdXo17xh5zmRJ6Q42BWCfc2oJfdAr+Yv+AP9Cb7OJ3H/2JG1HNGz/84klThPVCc=);strokeColor=none;labelBackgroundColor=none;rounded=0;html=1;whiteSpace=wrap;" parent="1" vertex="1">
          <mxGeometry x="387" y="549" width="42" height="21" as="geometry" />
        </mxCell>
        <mxCell id="158" value="&lt;font style=&quot;font-size:11px;font-family:Segoe UI;color:#3f3f3f;direction:ltr;letter-spacing:0px;line-height:120%;opacity:1&quot;&gt;Dev/Ops&lt;br/&gt;&lt;/font&gt;" style="verticalAlign=middle;align=center;vsdxID=395;fillColor=none;gradientColor=none;shape=stencil(nZBLDoAgDERP0z3SIyjew0SURgSD+Lu9kMZoXLhwN9O+tukAlrNpJg1SzDH4QW/URgNYgZTkjA4UkwJUgGXng+6DX1zLfmoymdXo17xh5zmRJ6Q42BWCfc2oJfdAr+Yv+AP9Cb7OJ3H/2JG1HNGz/84klThPVCc=);strokeColor=none;labelBackgroundColor=none;rounded=0;html=1;whiteSpace=wrap;" parent="1" vertex="1">
          <mxGeometry x="87" y="617" width="60" height="28" as="geometry" />
        </mxCell>
        <mxCell id="Cpq1ZpIzhN0V-iwIdP6c-179" value="&lt;font style=&quot;font-size: 8px&quot;&gt;Pet clinic&lt;/font&gt;" style="text;html=1;strokeColor=none;fillColor=none;align=center;verticalAlign=middle;whiteSpace=wrap;rounded=0;" parent="1" vertex="1">
          <mxGeometry x="418" y="358" width="98" height="30" as="geometry" />
        </mxCell>
        <mxCell id="Cpq1ZpIzhN0V-iwIdP6c-240" value="" style="group" parent="1" vertex="1" connectable="0">
          <mxGeometry x="330" y="426" width="302" height="131" as="geometry" />
        </mxCell>
        <mxCell id="26" value="&lt;p style=&quot;margin: 0px ; text-indent: 0px ; direction: ltr&quot;&gt;&lt;font style=&quot;font-size: 8px ; font-family: &amp;quot;segoe ui&amp;quot; ; color: #595959 ; direction: ltr ; letter-spacing: 0px ; line-height: 120% ; opacity: 1&quot;&gt;Namespace&lt;br&gt;&lt;/font&gt;&lt;/p&gt;" style="verticalAlign=bottom;align=right;vsdxID=27;fillColor=none;gradientColor=none;shape=stencil(nZBLDoAgDERP0z3SIyjew0SURgSD+Lu9kMZoXLhwN9O+tukAlrNpJg1SzDH4QW/URgNYgZTkjA4UkwJUgGXng+6DX1zLfmoymdXo17xh5zmRJ6Q42BWCfc2oJfdAr+Yv+AP9Cb7OJ3H/2JG1HNGz/84klThPVCc=);strokeColor=#bfbfbf;spacingBottom=-1;spacingRight=-1;labelBackgroundColor=none;rounded=0;html=1;whiteSpace=wrap;" parent="Cpq1ZpIzhN0V-iwIdP6c-240" vertex="1">
          <mxGeometry width="300" height="105" as="geometry" />
        </mxCell>
        <mxCell id="29" value="&lt;font style=&quot;font-size:12px;font-family:Segoe UI;color:#000000;direction:ltr;letter-spacing:0px;line-height:120%;opacity:1&quot;&gt;Utility services&lt;br/&gt;&lt;/font&gt;" style="verticalAlign=middle;align=center;vsdxID=31;fillColor=none;gradientColor=none;shape=stencil(nZBLDoAgDERP0z3SIyjew0SURgSD+Lu9kMZoXLhwN9O+tukAlrNpJg1SzDH4QW/URgNYgZTkjA4UkwJUgGXng+6DX1zLfmoymdXo17xh5zmRJ6Q42BWCfc2oJfdAr+Yv+AP9Cb7OJ3H/2JG1HNGz/84klThPVCc=);strokeColor=none;labelBackgroundColor=none;rounded=0;html=1;whiteSpace=wrap;" parent="Cpq1ZpIzhN0V-iwIdP6c-240" vertex="1">
          <mxGeometry x="48.5" width="187" height="19" as="geometry" />
        </mxCell>
        <mxCell id="113" style="vsdxID=329;fillColor=none;gradientColor=none;labelBackgroundColor=none;rounded=0;strokeColor=none;html=1;whiteSpace=wrap;" parent="Cpq1ZpIzhN0V-iwIdP6c-240" vertex="1">
          <mxGeometry x="10" y="24" width="20" height="20" as="geometry" />
        </mxCell>
        <mxCell id="114" value="" style="verticalAlign=top;align=center;vsdxID=330;fillColor=#FFFFFF;gradientColor=none;shape=stencil(vVHLDsIgEPwajiQI6RfU+h8bu22JCGRB2/69kG1iazx58DazM/vIjjBtmiCi0CplCjecbZ8nYc5Ca+snJJsLEqYTph0C4Ujh4XvmEaqzont41gkL96naodXKrGF6YSfQtUi0OXXDVlqPfJNP6usotUhYbJIUMmQb/GGrAxpRljVycDBuc1hKM2LclX8/7H9nFfB+82Cd45T2+mcspcSRmu4F);strokeColor=#7f7f7f;labelBackgroundColor=none;rounded=0;html=1;whiteSpace=wrap;" parent="113" vertex="1">
          <mxGeometry width="20" height="20" as="geometry" />
        </mxCell>
        <mxCell id="115" style="vsdxID=331;fillColor=none;gradientColor=none;labelBackgroundColor=none;rounded=0;strokeColor=none;html=1;whiteSpace=wrap;" parent="113" vertex="1">
          <mxGeometry x="5.6521739130434785" y="4.347826086956522" width="8.695652173913045" height="10.434782608695652" as="geometry" />
        </mxCell>
        <mxCell id="116" style="vsdxID=332;fillColor=#dbeef3;gradientColor=none;shape=stencil(lZDRDoIwDEW/pq+krBh8R/wPEoZrnBsZE/Xv3WyMYDTGt9v23Ka9QM1kulGDwikGf9QX7qMB2oFS7IwOHJMCaoGawQd9CP7seqnHLpNZnfycN1zFVyJmj8Kb1FVdYP3o7AW37Bb4Zk3jd/KvtdW2wHJleN71Ef95dBKvhwe2VvJazt8DSi0Jl9o7);strokeColor=none;spacingTop=-3;spacingBottom=-3;spacingLeft=-3;spacingRight=-3;labelBackgroundColor=none;rounded=0;html=1;whiteSpace=wrap;" parent="115" vertex="1">
          <mxGeometry width="8.260869565217392" height="5.6521739130434785" as="geometry" />
        </mxCell>
        <mxCell id="117" style="vsdxID=333;fillColor=#dbeef3;gradientColor=none;shape=stencil(UzV2Ls5ILEhVNTIoLinKz04tz0wpyVA1dlE1MsrMy0gtyiwBslSNXVWNndPyi1LTi/JL81Ig/IJEkEoQKze/DGRCBUSfoYEBSI+RQSUq3w2iOCczD0mxKapaPCpRFVpa6pkZIisGMhAOSsvMyYH4B1ke3QNAIYjnjV0B);strokeColor=#556a8a;spacingTop=-3;spacingBottom=-3;spacingLeft=-3;spacingRight=-3;labelBackgroundColor=none;rounded=0;html=1;whiteSpace=wrap;" parent="115" vertex="1">
          <mxGeometry width="8.695652173913045" height="2.608695652173913" as="geometry" />
        </mxCell>
        <mxCell id="118" style="vsdxID=334;fillColor=#dbeef3;gradientColor=none;shape=stencil(jZHdDsIgDIWfprdLpUMfYM73WDImRISF4d/bCzbGSTLd3Wn79eSkBWom3Y0KBE4x+JO6mT5qoD0IYZxWwcSkgFqgZvBBHYO/uJ7rsctkVmd/zQ533sO8IfDB1VZW9e7VOTBsjZvB8pveIC6z7+FK6xL/4VykoLqStEyvtv0TN4nPDQdjLb9gPi9vnlr8L2qf);strokeColor=#556a8a;spacingTop=-3;spacingBottom=-3;spacingLeft=-3;spacingRight=-3;labelBackgroundColor=none;rounded=0;html=1;whiteSpace=wrap;" parent="115" vertex="1">
          <mxGeometry y="2.608695652173913" width="8.260869565217392" height="7.82608695652174" as="geometry" />
        </mxCell>
        <mxCell id="174" style="vsdxID=335;edgeStyle=none;startArrow=none;endArrow=none;startSize=5;endSize=5;strokeColor=#556a8a;spacingTop=0;spacingBottom=0;spacingLeft=0;spacingRight=0;verticalAlign=middle;html=1;labelBackgroundColor=#ffffff;rounded=0;" parent="115" edge="1">
          <mxGeometry relative="1" as="geometry">
            <Array as="points" />
            <mxPoint x="4.347826086956522" y="5.217391304347826" as="sourcePoint" />
            <mxPoint x="4.347826086956522" y="10.434782608695652" as="targetPoint" />
          </mxGeometry>
        </mxCell>
        <mxCell id="145" value="&lt;font style=&quot;font-family: &amp;quot;segoe ui&amp;quot; ; color: rgb(89 , 89 , 89) ; direction: ltr ; letter-spacing: 0px ; line-height: 120% ; opacity: 1&quot;&gt;&lt;font style=&quot;font-size: 8px&quot;&gt;Elasticsearch&lt;/font&gt;&lt;br&gt;&lt;/font&gt;" style="verticalAlign=middle;align=left;vsdxID=382;fillColor=none;gradientColor=none;shape=stencil(nZBLDoAgDERP0z3SIyjew0SURgSD+Lu9kMZoXLhwN9O+tukAlrNpJg1SzDH4QW/URgNYgZTkjA4UkwJUgGXng+6DX1zLfmoymdXo17xh5zmRJ6Q42BWCfc2oJfdAr+Yv+AP9Cb7OJ3H/2JG1HNGz/84klThPVCc=);strokeColor=none;labelBackgroundColor=none;rounded=0;html=1;whiteSpace=wrap;" parent="Cpq1ZpIzhN0V-iwIdP6c-240" vertex="1">
          <mxGeometry x="30" y="26" width="79" height="11" as="geometry" />
        </mxCell>
        <mxCell id="Cpq1ZpIzhN0V-iwIdP6c-182" style="vsdxID=329;fillColor=none;gradientColor=none;labelBackgroundColor=none;rounded=0;strokeColor=none;html=1;whiteSpace=wrap;" parent="Cpq1ZpIzhN0V-iwIdP6c-240" vertex="1">
          <mxGeometry x="10" y="49" width="20" height="20" as="geometry" />
        </mxCell>
        <mxCell id="Cpq1ZpIzhN0V-iwIdP6c-183" value="" style="verticalAlign=top;align=center;vsdxID=330;fillColor=#FFFFFF;gradientColor=none;shape=stencil(vVHLDsIgEPwajiQI6RfU+h8bu22JCGRB2/69kG1iazx58DazM/vIjjBtmiCi0CplCjecbZ8nYc5Ca+snJJsLEqYTph0C4Ujh4XvmEaqzont41gkL96naodXKrGF6YSfQtUi0OXXDVlqPfJNP6usotUhYbJIUMmQb/GGrAxpRljVycDBuc1hKM2LclX8/7H9nFfB+82Cd45T2+mcspcSRmu4F);strokeColor=#7f7f7f;labelBackgroundColor=none;rounded=0;html=1;whiteSpace=wrap;" parent="Cpq1ZpIzhN0V-iwIdP6c-182" vertex="1">
          <mxGeometry width="20" height="20" as="geometry" />
        </mxCell>
        <mxCell id="Cpq1ZpIzhN0V-iwIdP6c-184" style="vsdxID=331;fillColor=none;gradientColor=none;labelBackgroundColor=none;rounded=0;strokeColor=none;html=1;whiteSpace=wrap;" parent="Cpq1ZpIzhN0V-iwIdP6c-182" vertex="1">
          <mxGeometry x="5.6521739130434785" y="4.347826086956522" width="8.695652173913045" height="10.434782608695652" as="geometry" />
        </mxCell>
        <mxCell id="Cpq1ZpIzhN0V-iwIdP6c-185" style="vsdxID=332;fillColor=#dbeef3;gradientColor=none;shape=stencil(lZDRDoIwDEW/pq+krBh8R/wPEoZrnBsZE/Xv3WyMYDTGt9v23Ka9QM1kulGDwikGf9QX7qMB2oFS7IwOHJMCaoGawQd9CP7seqnHLpNZnfycN1zFVyJmj8Kb1FVdYP3o7AW37Bb4Zk3jd/KvtdW2wHJleN71Ef95dBKvhwe2VvJazt8DSi0Jl9o7);strokeColor=none;spacingTop=-3;spacingBottom=-3;spacingLeft=-3;spacingRight=-3;labelBackgroundColor=none;rounded=0;html=1;whiteSpace=wrap;" parent="Cpq1ZpIzhN0V-iwIdP6c-184" vertex="1">
          <mxGeometry width="8.260869565217392" height="5.6521739130434785" as="geometry" />
        </mxCell>
        <mxCell id="Cpq1ZpIzhN0V-iwIdP6c-186" style="vsdxID=333;fillColor=#dbeef3;gradientColor=none;shape=stencil(UzV2Ls5ILEhVNTIoLinKz04tz0wpyVA1dlE1MsrMy0gtyiwBslSNXVWNndPyi1LTi/JL81Ig/IJEkEoQKze/DGRCBUSfoYEBSI+RQSUq3w2iOCczD0mxKapaPCpRFVpa6pkZIisGMhAOSsvMyYH4B1ke3QNAIYjnjV0B);strokeColor=#556a8a;spacingTop=-3;spacingBottom=-3;spacingLeft=-3;spacingRight=-3;labelBackgroundColor=none;rounded=0;html=1;whiteSpace=wrap;" parent="Cpq1ZpIzhN0V-iwIdP6c-184" vertex="1">
          <mxGeometry width="8.695652173913045" height="2.608695652173913" as="geometry" />
        </mxCell>
        <mxCell id="Cpq1ZpIzhN0V-iwIdP6c-187" style="vsdxID=334;fillColor=#dbeef3;gradientColor=none;shape=stencil(jZHdDsIgDIWfprdLpUMfYM73WDImRISF4d/bCzbGSTLd3Wn79eSkBWom3Y0KBE4x+JO6mT5qoD0IYZxWwcSkgFqgZvBBHYO/uJ7rsctkVmd/zQ533sO8IfDB1VZW9e7VOTBsjZvB8pveIC6z7+FK6xL/4VykoLqStEyvtv0TN4nPDQdjLb9gPi9vnlr8L2qf);strokeColor=#556a8a;spacingTop=-3;spacingBottom=-3;spacingLeft=-3;spacingRight=-3;labelBackgroundColor=none;rounded=0;html=1;whiteSpace=wrap;" parent="Cpq1ZpIzhN0V-iwIdP6c-184" vertex="1">
          <mxGeometry y="2.608695652173913" width="8.260869565217392" height="7.82608695652174" as="geometry" />
        </mxCell>
        <mxCell id="Cpq1ZpIzhN0V-iwIdP6c-188" style="vsdxID=335;edgeStyle=none;startArrow=none;endArrow=none;startSize=5;endSize=5;strokeColor=#556a8a;spacingTop=0;spacingBottom=0;spacingLeft=0;spacingRight=0;verticalAlign=middle;html=1;labelBackgroundColor=#ffffff;rounded=0;" parent="Cpq1ZpIzhN0V-iwIdP6c-184" edge="1">
          <mxGeometry relative="1" as="geometry">
            <Array as="points" />
            <mxPoint x="4.347826086956522" y="5.217391304347826" as="sourcePoint" />
            <mxPoint x="4.347826086956522" y="10.434782608695652" as="targetPoint" />
          </mxGeometry>
        </mxCell>
        <mxCell id="Cpq1ZpIzhN0V-iwIdP6c-189" style="vsdxID=329;fillColor=none;gradientColor=none;labelBackgroundColor=none;rounded=0;strokeColor=none;html=1;whiteSpace=wrap;" parent="Cpq1ZpIzhN0V-iwIdP6c-240" vertex="1">
          <mxGeometry x="10" y="75" width="20" height="20" as="geometry" />
        </mxCell>
        <mxCell id="Cpq1ZpIzhN0V-iwIdP6c-190" value="" style="verticalAlign=top;align=center;vsdxID=330;fillColor=#FFFFFF;gradientColor=none;shape=stencil(vVHLDsIgEPwajiQI6RfU+h8bu22JCGRB2/69kG1iazx58DazM/vIjjBtmiCi0CplCjecbZ8nYc5Ca+snJJsLEqYTph0C4Ujh4XvmEaqzont41gkL96naodXKrGF6YSfQtUi0OXXDVlqPfJNP6usotUhYbJIUMmQb/GGrAxpRljVycDBuc1hKM2LclX8/7H9nFfB+82Cd45T2+mcspcSRmu4F);strokeColor=#7f7f7f;labelBackgroundColor=none;rounded=0;html=1;whiteSpace=wrap;" parent="Cpq1ZpIzhN0V-iwIdP6c-189" vertex="1">
          <mxGeometry width="20" height="20" as="geometry" />
        </mxCell>
        <mxCell id="Cpq1ZpIzhN0V-iwIdP6c-191" style="vsdxID=331;fillColor=none;gradientColor=none;labelBackgroundColor=none;rounded=0;strokeColor=none;html=1;whiteSpace=wrap;" parent="Cpq1ZpIzhN0V-iwIdP6c-189" vertex="1">
          <mxGeometry x="5.6521739130434785" y="4.347826086956522" width="8.695652173913045" height="10.434782608695652" as="geometry" />
        </mxCell>
        <mxCell id="Cpq1ZpIzhN0V-iwIdP6c-192" style="vsdxID=332;fillColor=#dbeef3;gradientColor=none;shape=stencil(lZDRDoIwDEW/pq+krBh8R/wPEoZrnBsZE/Xv3WyMYDTGt9v23Ka9QM1kulGDwikGf9QX7qMB2oFS7IwOHJMCaoGawQd9CP7seqnHLpNZnfycN1zFVyJmj8Kb1FVdYP3o7AW37Bb4Zk3jd/KvtdW2wHJleN71Ef95dBKvhwe2VvJazt8DSi0Jl9o7);strokeColor=none;spacingTop=-3;spacingBottom=-3;spacingLeft=-3;spacingRight=-3;labelBackgroundColor=none;rounded=0;html=1;whiteSpace=wrap;" parent="Cpq1ZpIzhN0V-iwIdP6c-191" vertex="1">
          <mxGeometry width="8.260869565217392" height="5.6521739130434785" as="geometry" />
        </mxCell>
        <mxCell id="Cpq1ZpIzhN0V-iwIdP6c-193" style="vsdxID=333;fillColor=#dbeef3;gradientColor=none;shape=stencil(UzV2Ls5ILEhVNTIoLinKz04tz0wpyVA1dlE1MsrMy0gtyiwBslSNXVWNndPyi1LTi/JL81Ig/IJEkEoQKze/DGRCBUSfoYEBSI+RQSUq3w2iOCczD0mxKapaPCpRFVpa6pkZIisGMhAOSsvMyYH4B1ke3QNAIYjnjV0B);strokeColor=#556a8a;spacingTop=-3;spacingBottom=-3;spacingLeft=-3;spacingRight=-3;labelBackgroundColor=none;rounded=0;html=1;whiteSpace=wrap;" parent="Cpq1ZpIzhN0V-iwIdP6c-191" vertex="1">
          <mxGeometry width="8.695652173913045" height="2.608695652173913" as="geometry" />
        </mxCell>
        <mxCell id="Cpq1ZpIzhN0V-iwIdP6c-194" style="vsdxID=334;fillColor=#dbeef3;gradientColor=none;shape=stencil(jZHdDsIgDIWfprdLpUMfYM73WDImRISF4d/bCzbGSTLd3Wn79eSkBWom3Y0KBE4x+JO6mT5qoD0IYZxWwcSkgFqgZvBBHYO/uJ7rsctkVmd/zQ533sO8IfDB1VZW9e7VOTBsjZvB8pveIC6z7+FK6xL/4VykoLqStEyvtv0TN4nPDQdjLb9gPi9vnlr8L2qf);strokeColor=#556a8a;spacingTop=-3;spacingBottom=-3;spacingLeft=-3;spacingRight=-3;labelBackgroundColor=none;rounded=0;html=1;whiteSpace=wrap;" parent="Cpq1ZpIzhN0V-iwIdP6c-191" vertex="1">
          <mxGeometry y="2.608695652173913" width="8.260869565217392" height="7.82608695652174" as="geometry" />
        </mxCell>
        <mxCell id="Cpq1ZpIzhN0V-iwIdP6c-195" style="vsdxID=335;edgeStyle=none;startArrow=none;endArrow=none;startSize=5;endSize=5;strokeColor=#556a8a;spacingTop=0;spacingBottom=0;spacingLeft=0;spacingRight=0;verticalAlign=middle;html=1;labelBackgroundColor=#ffffff;rounded=0;" parent="Cpq1ZpIzhN0V-iwIdP6c-191" edge="1">
          <mxGeometry relative="1" as="geometry">
            <Array as="points" />
            <mxPoint x="4.347826086956522" y="5.217391304347826" as="sourcePoint" />
            <mxPoint x="4.347826086956522" y="10.434782608695652" as="targetPoint" />
          </mxGeometry>
        </mxCell>
        <mxCell id="Cpq1ZpIzhN0V-iwIdP6c-196" value="&lt;font style=&quot;font-family: &amp;#34;segoe ui&amp;#34; ; color: rgb(89 , 89 , 89) ; direction: ltr ; letter-spacing: 0px ; line-height: 120% ; opacity: 1&quot;&gt;&lt;font style=&quot;font-size: 8px&quot;&gt;Kibana&lt;/font&gt;&lt;br&gt;&lt;/font&gt;" style="verticalAlign=middle;align=left;vsdxID=382;fillColor=none;gradientColor=none;shape=stencil(nZBLDoAgDERP0z3SIyjew0SURgSD+Lu9kMZoXLhwN9O+tukAlrNpJg1SzDH4QW/URgNYgZTkjA4UkwJUgGXng+6DX1zLfmoymdXo17xh5zmRJ6Q42BWCfc2oJfdAr+Yv+AP9Cb7OJ3H/2JG1HNGz/84klThPVCc=);strokeColor=none;labelBackgroundColor=none;rounded=0;html=1;whiteSpace=wrap;" parent="Cpq1ZpIzhN0V-iwIdP6c-240" vertex="1">
          <mxGeometry x="30" y="50" width="79" height="11" as="geometry" />
        </mxCell>
        <mxCell id="Cpq1ZpIzhN0V-iwIdP6c-197" value="&lt;font style=&quot;font-family: &amp;#34;segoe ui&amp;#34; ; color: rgb(89 , 89 , 89) ; direction: ltr ; letter-spacing: 0px ; line-height: 120% ; opacity: 1&quot;&gt;&lt;font style=&quot;font-size: 8px&quot;&gt;Filebeat&lt;/font&gt;&lt;br&gt;&lt;/font&gt;" style="verticalAlign=middle;align=left;vsdxID=382;fillColor=none;gradientColor=none;shape=stencil(nZBLDoAgDERP0z3SIyjew0SURgSD+Lu9kMZoXLhwN9O+tukAlrNpJg1SzDH4QW/URgNYgZTkjA4UkwJUgGXng+6DX1zLfmoymdXo17xh5zmRJ6Q42BWCfc2oJfdAr+Yv+AP9Cb7OJ3H/2JG1HNGz/84klThPVCc=);strokeColor=none;labelBackgroundColor=none;rounded=0;html=1;whiteSpace=wrap;" parent="Cpq1ZpIzhN0V-iwIdP6c-240" vertex="1">
          <mxGeometry x="30" y="78" width="79" height="11" as="geometry" />
        </mxCell>
        <mxCell id="Cpq1ZpIzhN0V-iwIdP6c-199" style="vsdxID=329;fillColor=none;gradientColor=none;labelBackgroundColor=none;rounded=0;strokeColor=none;html=1;whiteSpace=wrap;" parent="Cpq1ZpIzhN0V-iwIdP6c-240" vertex="1">
          <mxGeometry x="107" y="24" width="20" height="20" as="geometry" />
        </mxCell>
        <mxCell id="Cpq1ZpIzhN0V-iwIdP6c-200" value="" style="verticalAlign=top;align=center;vsdxID=330;fillColor=#FFFFFF;gradientColor=none;shape=stencil(vVHLDsIgEPwajiQI6RfU+h8bu22JCGRB2/69kG1iazx58DazM/vIjjBtmiCi0CplCjecbZ8nYc5Ca+snJJsLEqYTph0C4Ujh4XvmEaqzont41gkL96naodXKrGF6YSfQtUi0OXXDVlqPfJNP6usotUhYbJIUMmQb/GGrAxpRljVycDBuc1hKM2LclX8/7H9nFfB+82Cd45T2+mcspcSRmu4F);strokeColor=#7f7f7f;labelBackgroundColor=none;rounded=0;html=1;whiteSpace=wrap;" parent="Cpq1ZpIzhN0V-iwIdP6c-199" vertex="1">
          <mxGeometry width="20" height="20" as="geometry" />
        </mxCell>
        <mxCell id="Cpq1ZpIzhN0V-iwIdP6c-201" style="vsdxID=331;fillColor=none;gradientColor=none;labelBackgroundColor=none;rounded=0;strokeColor=none;html=1;whiteSpace=wrap;" parent="Cpq1ZpIzhN0V-iwIdP6c-199" vertex="1">
          <mxGeometry x="5.6521739130434785" y="4.347826086956522" width="8.695652173913045" height="10.434782608695652" as="geometry" />
        </mxCell>
        <mxCell id="Cpq1ZpIzhN0V-iwIdP6c-202" style="vsdxID=332;fillColor=#dbeef3;gradientColor=none;shape=stencil(lZDRDoIwDEW/pq+krBh8R/wPEoZrnBsZE/Xv3WyMYDTGt9v23Ka9QM1kulGDwikGf9QX7qMB2oFS7IwOHJMCaoGawQd9CP7seqnHLpNZnfycN1zFVyJmj8Kb1FVdYP3o7AW37Bb4Zk3jd/KvtdW2wHJleN71Ef95dBKvhwe2VvJazt8DSi0Jl9o7);strokeColor=none;spacingTop=-3;spacingBottom=-3;spacingLeft=-3;spacingRight=-3;labelBackgroundColor=none;rounded=0;html=1;whiteSpace=wrap;" parent="Cpq1ZpIzhN0V-iwIdP6c-201" vertex="1">
          <mxGeometry width="8.260869565217392" height="5.6521739130434785" as="geometry" />
        </mxCell>
        <mxCell id="Cpq1ZpIzhN0V-iwIdP6c-203" style="vsdxID=333;fillColor=#dbeef3;gradientColor=none;shape=stencil(UzV2Ls5ILEhVNTIoLinKz04tz0wpyVA1dlE1MsrMy0gtyiwBslSNXVWNndPyi1LTi/JL81Ig/IJEkEoQKze/DGRCBUSfoYEBSI+RQSUq3w2iOCczD0mxKapaPCpRFVpa6pkZIisGMhAOSsvMyYH4B1ke3QNAIYjnjV0B);strokeColor=#556a8a;spacingTop=-3;spacingBottom=-3;spacingLeft=-3;spacingRight=-3;labelBackgroundColor=none;rounded=0;html=1;whiteSpace=wrap;" parent="Cpq1ZpIzhN0V-iwIdP6c-201" vertex="1">
          <mxGeometry width="8.695652173913045" height="2.608695652173913" as="geometry" />
        </mxCell>
        <mxCell id="Cpq1ZpIzhN0V-iwIdP6c-204" style="vsdxID=334;fillColor=#dbeef3;gradientColor=none;shape=stencil(jZHdDsIgDIWfprdLpUMfYM73WDImRISF4d/bCzbGSTLd3Wn79eSkBWom3Y0KBE4x+JO6mT5qoD0IYZxWwcSkgFqgZvBBHYO/uJ7rsctkVmd/zQ533sO8IfDB1VZW9e7VOTBsjZvB8pveIC6z7+FK6xL/4VykoLqStEyvtv0TN4nPDQdjLb9gPi9vnlr8L2qf);strokeColor=#556a8a;spacingTop=-3;spacingBottom=-3;spacingLeft=-3;spacingRight=-3;labelBackgroundColor=none;rounded=0;html=1;whiteSpace=wrap;" parent="Cpq1ZpIzhN0V-iwIdP6c-201" vertex="1">
          <mxGeometry y="2.608695652173913" width="8.260869565217392" height="7.82608695652174" as="geometry" />
        </mxCell>
        <mxCell id="Cpq1ZpIzhN0V-iwIdP6c-205" style="vsdxID=335;edgeStyle=none;startArrow=none;endArrow=none;startSize=5;endSize=5;strokeColor=#556a8a;spacingTop=0;spacingBottom=0;spacingLeft=0;spacingRight=0;verticalAlign=middle;html=1;labelBackgroundColor=#ffffff;rounded=0;" parent="Cpq1ZpIzhN0V-iwIdP6c-201" edge="1">
          <mxGeometry relative="1" as="geometry">
            <Array as="points" />
            <mxPoint x="4.347826086956522" y="5.217391304347826" as="sourcePoint" />
            <mxPoint x="4.347826086956522" y="10.434782608695652" as="targetPoint" />
          </mxGeometry>
        </mxCell>
        <mxCell id="Cpq1ZpIzhN0V-iwIdP6c-206" style="vsdxID=329;fillColor=none;gradientColor=none;labelBackgroundColor=none;rounded=0;strokeColor=none;html=1;whiteSpace=wrap;" parent="Cpq1ZpIzhN0V-iwIdP6c-240" vertex="1">
          <mxGeometry x="107" y="49.5" width="20" height="20" as="geometry" />
        </mxCell>
        <mxCell id="Cpq1ZpIzhN0V-iwIdP6c-207" value="" style="verticalAlign=top;align=center;vsdxID=330;fillColor=#FFFFFF;gradientColor=none;shape=stencil(vVHLDsIgEPwajiQI6RfU+h8bu22JCGRB2/69kG1iazx58DazM/vIjjBtmiCi0CplCjecbZ8nYc5Ca+snJJsLEqYTph0C4Ujh4XvmEaqzont41gkL96naodXKrGF6YSfQtUi0OXXDVlqPfJNP6usotUhYbJIUMmQb/GGrAxpRljVycDBuc1hKM2LclX8/7H9nFfB+82Cd45T2+mcspcSRmu4F);strokeColor=#7f7f7f;labelBackgroundColor=none;rounded=0;html=1;whiteSpace=wrap;" parent="Cpq1ZpIzhN0V-iwIdP6c-206" vertex="1">
          <mxGeometry width="20" height="20" as="geometry" />
        </mxCell>
        <mxCell id="Cpq1ZpIzhN0V-iwIdP6c-208" style="vsdxID=331;fillColor=none;gradientColor=none;labelBackgroundColor=none;rounded=0;strokeColor=none;html=1;whiteSpace=wrap;" parent="Cpq1ZpIzhN0V-iwIdP6c-206" vertex="1">
          <mxGeometry x="5.6521739130434785" y="4.347826086956522" width="8.695652173913045" height="10.434782608695652" as="geometry" />
        </mxCell>
        <mxCell id="Cpq1ZpIzhN0V-iwIdP6c-209" style="vsdxID=332;fillColor=#dbeef3;gradientColor=none;shape=stencil(lZDRDoIwDEW/pq+krBh8R/wPEoZrnBsZE/Xv3WyMYDTGt9v23Ka9QM1kulGDwikGf9QX7qMB2oFS7IwOHJMCaoGawQd9CP7seqnHLpNZnfycN1zFVyJmj8Kb1FVdYP3o7AW37Bb4Zk3jd/KvtdW2wHJleN71Ef95dBKvhwe2VvJazt8DSi0Jl9o7);strokeColor=none;spacingTop=-3;spacingBottom=-3;spacingLeft=-3;spacingRight=-3;labelBackgroundColor=none;rounded=0;html=1;whiteSpace=wrap;" parent="Cpq1ZpIzhN0V-iwIdP6c-208" vertex="1">
          <mxGeometry width="8.260869565217392" height="5.6521739130434785" as="geometry" />
        </mxCell>
        <mxCell id="Cpq1ZpIzhN0V-iwIdP6c-210" style="vsdxID=333;fillColor=#dbeef3;gradientColor=none;shape=stencil(UzV2Ls5ILEhVNTIoLinKz04tz0wpyVA1dlE1MsrMy0gtyiwBslSNXVWNndPyi1LTi/JL81Ig/IJEkEoQKze/DGRCBUSfoYEBSI+RQSUq3w2iOCczD0mxKapaPCpRFVpa6pkZIisGMhAOSsvMyYH4B1ke3QNAIYjnjV0B);strokeColor=#556a8a;spacingTop=-3;spacingBottom=-3;spacingLeft=-3;spacingRight=-3;labelBackgroundColor=none;rounded=0;html=1;whiteSpace=wrap;" parent="Cpq1ZpIzhN0V-iwIdP6c-208" vertex="1">
          <mxGeometry width="8.695652173913045" height="2.608695652173913" as="geometry" />
        </mxCell>
        <mxCell id="Cpq1ZpIzhN0V-iwIdP6c-211" style="vsdxID=334;fillColor=#dbeef3;gradientColor=none;shape=stencil(jZHdDsIgDIWfprdLpUMfYM73WDImRISF4d/bCzbGSTLd3Wn79eSkBWom3Y0KBE4x+JO6mT5qoD0IYZxWwcSkgFqgZvBBHYO/uJ7rsctkVmd/zQ533sO8IfDB1VZW9e7VOTBsjZvB8pveIC6z7+FK6xL/4VykoLqStEyvtv0TN4nPDQdjLb9gPi9vnlr8L2qf);strokeColor=#556a8a;spacingTop=-3;spacingBottom=-3;spacingLeft=-3;spacingRight=-3;labelBackgroundColor=none;rounded=0;html=1;whiteSpace=wrap;" parent="Cpq1ZpIzhN0V-iwIdP6c-208" vertex="1">
          <mxGeometry y="2.608695652173913" width="8.260869565217392" height="7.82608695652174" as="geometry" />
        </mxCell>
        <mxCell id="Cpq1ZpIzhN0V-iwIdP6c-212" style="vsdxID=335;edgeStyle=none;startArrow=none;endArrow=none;startSize=5;endSize=5;strokeColor=#556a8a;spacingTop=0;spacingBottom=0;spacingLeft=0;spacingRight=0;verticalAlign=middle;html=1;labelBackgroundColor=#ffffff;rounded=0;" parent="Cpq1ZpIzhN0V-iwIdP6c-208" edge="1">
          <mxGeometry relative="1" as="geometry">
            <Array as="points" />
            <mxPoint x="4.347826086956522" y="5.217391304347826" as="sourcePoint" />
            <mxPoint x="4.347826086956522" y="10.434782608695652" as="targetPoint" />
          </mxGeometry>
        </mxCell>
        <mxCell id="Cpq1ZpIzhN0V-iwIdP6c-213" style="vsdxID=329;fillColor=none;gradientColor=none;labelBackgroundColor=none;rounded=0;strokeColor=none;html=1;whiteSpace=wrap;" parent="Cpq1ZpIzhN0V-iwIdP6c-240" vertex="1">
          <mxGeometry x="107" y="75" width="20" height="20" as="geometry" />
        </mxCell>
        <mxCell id="Cpq1ZpIzhN0V-iwIdP6c-214" value="" style="verticalAlign=top;align=center;vsdxID=330;fillColor=#FFFFFF;gradientColor=none;shape=stencil(vVHLDsIgEPwajiQI6RfU+h8bu22JCGRB2/69kG1iazx58DazM/vIjjBtmiCi0CplCjecbZ8nYc5Ca+snJJsLEqYTph0C4Ujh4XvmEaqzont41gkL96naodXKrGF6YSfQtUi0OXXDVlqPfJNP6usotUhYbJIUMmQb/GGrAxpRljVycDBuc1hKM2LclX8/7H9nFfB+82Cd45T2+mcspcSRmu4F);strokeColor=#7f7f7f;labelBackgroundColor=none;rounded=0;html=1;whiteSpace=wrap;" parent="Cpq1ZpIzhN0V-iwIdP6c-213" vertex="1">
          <mxGeometry width="20" height="20" as="geometry" />
        </mxCell>
        <mxCell id="Cpq1ZpIzhN0V-iwIdP6c-215" style="vsdxID=331;fillColor=none;gradientColor=none;labelBackgroundColor=none;rounded=0;strokeColor=none;html=1;whiteSpace=wrap;" parent="Cpq1ZpIzhN0V-iwIdP6c-213" vertex="1">
          <mxGeometry x="5.6521739130434785" y="4.347826086956522" width="8.695652173913045" height="10.434782608695652" as="geometry" />
        </mxCell>
        <mxCell id="Cpq1ZpIzhN0V-iwIdP6c-216" style="vsdxID=332;fillColor=#dbeef3;gradientColor=none;shape=stencil(lZDRDoIwDEW/pq+krBh8R/wPEoZrnBsZE/Xv3WyMYDTGt9v23Ka9QM1kulGDwikGf9QX7qMB2oFS7IwOHJMCaoGawQd9CP7seqnHLpNZnfycN1zFVyJmj8Kb1FVdYP3o7AW37Bb4Zk3jd/KvtdW2wHJleN71Ef95dBKvhwe2VvJazt8DSi0Jl9o7);strokeColor=none;spacingTop=-3;spacingBottom=-3;spacingLeft=-3;spacingRight=-3;labelBackgroundColor=none;rounded=0;html=1;whiteSpace=wrap;" parent="Cpq1ZpIzhN0V-iwIdP6c-215" vertex="1">
          <mxGeometry width="8.260869565217392" height="5.6521739130434785" as="geometry" />
        </mxCell>
        <mxCell id="Cpq1ZpIzhN0V-iwIdP6c-217" style="vsdxID=333;fillColor=#dbeef3;gradientColor=none;shape=stencil(UzV2Ls5ILEhVNTIoLinKz04tz0wpyVA1dlE1MsrMy0gtyiwBslSNXVWNndPyi1LTi/JL81Ig/IJEkEoQKze/DGRCBUSfoYEBSI+RQSUq3w2iOCczD0mxKapaPCpRFVpa6pkZIisGMhAOSsvMyYH4B1ke3QNAIYjnjV0B);strokeColor=#556a8a;spacingTop=-3;spacingBottom=-3;spacingLeft=-3;spacingRight=-3;labelBackgroundColor=none;rounded=0;html=1;whiteSpace=wrap;" parent="Cpq1ZpIzhN0V-iwIdP6c-215" vertex="1">
          <mxGeometry width="8.695652173913045" height="2.608695652173913" as="geometry" />
        </mxCell>
        <mxCell id="Cpq1ZpIzhN0V-iwIdP6c-218" style="vsdxID=334;fillColor=#dbeef3;gradientColor=none;shape=stencil(jZHdDsIgDIWfprdLpUMfYM73WDImRISF4d/bCzbGSTLd3Wn79eSkBWom3Y0KBE4x+JO6mT5qoD0IYZxWwcSkgFqgZvBBHYO/uJ7rsctkVmd/zQ533sO8IfDB1VZW9e7VOTBsjZvB8pveIC6z7+FK6xL/4VykoLqStEyvtv0TN4nPDQdjLb9gPi9vnlr8L2qf);strokeColor=#556a8a;spacingTop=-3;spacingBottom=-3;spacingLeft=-3;spacingRight=-3;labelBackgroundColor=none;rounded=0;html=1;whiteSpace=wrap;" parent="Cpq1ZpIzhN0V-iwIdP6c-215" vertex="1">
          <mxGeometry y="2.608695652173913" width="8.260869565217392" height="7.82608695652174" as="geometry" />
        </mxCell>
        <mxCell id="Cpq1ZpIzhN0V-iwIdP6c-219" style="vsdxID=335;edgeStyle=none;startArrow=none;endArrow=none;startSize=5;endSize=5;strokeColor=#556a8a;spacingTop=0;spacingBottom=0;spacingLeft=0;spacingRight=0;verticalAlign=middle;html=1;labelBackgroundColor=#ffffff;rounded=0;" parent="Cpq1ZpIzhN0V-iwIdP6c-215" edge="1">
          <mxGeometry relative="1" as="geometry">
            <Array as="points" />
            <mxPoint x="4.347826086956522" y="5.217391304347826" as="sourcePoint" />
            <mxPoint x="4.347826086956522" y="10.434782608695652" as="targetPoint" />
          </mxGeometry>
        </mxCell>
        <mxCell id="Cpq1ZpIzhN0V-iwIdP6c-220" style="vsdxID=329;fillColor=none;gradientColor=none;labelBackgroundColor=none;rounded=0;strokeColor=none;html=1;whiteSpace=wrap;" parent="Cpq1ZpIzhN0V-iwIdP6c-240" vertex="1">
          <mxGeometry x="199" y="24" width="20" height="20" as="geometry" />
        </mxCell>
        <mxCell id="Cpq1ZpIzhN0V-iwIdP6c-221" value="" style="verticalAlign=top;align=center;vsdxID=330;fillColor=#FFFFFF;gradientColor=none;shape=stencil(vVHLDsIgEPwajiQI6RfU+h8bu22JCGRB2/69kG1iazx58DazM/vIjjBtmiCi0CplCjecbZ8nYc5Ca+snJJsLEqYTph0C4Ujh4XvmEaqzont41gkL96naodXKrGF6YSfQtUi0OXXDVlqPfJNP6usotUhYbJIUMmQb/GGrAxpRljVycDBuc1hKM2LclX8/7H9nFfB+82Cd45T2+mcspcSRmu4F);strokeColor=#7f7f7f;labelBackgroundColor=none;rounded=0;html=1;whiteSpace=wrap;" parent="Cpq1ZpIzhN0V-iwIdP6c-220" vertex="1">
          <mxGeometry width="20" height="20" as="geometry" />
        </mxCell>
        <mxCell id="Cpq1ZpIzhN0V-iwIdP6c-222" style="vsdxID=331;fillColor=none;gradientColor=none;labelBackgroundColor=none;rounded=0;strokeColor=none;html=1;whiteSpace=wrap;" parent="Cpq1ZpIzhN0V-iwIdP6c-220" vertex="1">
          <mxGeometry x="5.6521739130434785" y="4.347826086956522" width="8.695652173913045" height="10.434782608695652" as="geometry" />
        </mxCell>
        <mxCell id="Cpq1ZpIzhN0V-iwIdP6c-223" style="vsdxID=332;fillColor=#dbeef3;gradientColor=none;shape=stencil(lZDRDoIwDEW/pq+krBh8R/wPEoZrnBsZE/Xv3WyMYDTGt9v23Ka9QM1kulGDwikGf9QX7qMB2oFS7IwOHJMCaoGawQd9CP7seqnHLpNZnfycN1zFVyJmj8Kb1FVdYP3o7AW37Bb4Zk3jd/KvtdW2wHJleN71Ef95dBKvhwe2VvJazt8DSi0Jl9o7);strokeColor=none;spacingTop=-3;spacingBottom=-3;spacingLeft=-3;spacingRight=-3;labelBackgroundColor=none;rounded=0;html=1;whiteSpace=wrap;" parent="Cpq1ZpIzhN0V-iwIdP6c-222" vertex="1">
          <mxGeometry width="8.260869565217392" height="5.6521739130434785" as="geometry" />
        </mxCell>
        <mxCell id="Cpq1ZpIzhN0V-iwIdP6c-224" style="vsdxID=333;fillColor=#dbeef3;gradientColor=none;shape=stencil(UzV2Ls5ILEhVNTIoLinKz04tz0wpyVA1dlE1MsrMy0gtyiwBslSNXVWNndPyi1LTi/JL81Ig/IJEkEoQKze/DGRCBUSfoYEBSI+RQSUq3w2iOCczD0mxKapaPCpRFVpa6pkZIisGMhAOSsvMyYH4B1ke3QNAIYjnjV0B);strokeColor=#556a8a;spacingTop=-3;spacingBottom=-3;spacingLeft=-3;spacingRight=-3;labelBackgroundColor=none;rounded=0;html=1;whiteSpace=wrap;" parent="Cpq1ZpIzhN0V-iwIdP6c-222" vertex="1">
          <mxGeometry width="8.695652173913045" height="2.608695652173913" as="geometry" />
        </mxCell>
        <mxCell id="Cpq1ZpIzhN0V-iwIdP6c-225" style="vsdxID=334;fillColor=#dbeef3;gradientColor=none;shape=stencil(jZHdDsIgDIWfprdLpUMfYM73WDImRISF4d/bCzbGSTLd3Wn79eSkBWom3Y0KBE4x+JO6mT5qoD0IYZxWwcSkgFqgZvBBHYO/uJ7rsctkVmd/zQ533sO8IfDB1VZW9e7VOTBsjZvB8pveIC6z7+FK6xL/4VykoLqStEyvtv0TN4nPDQdjLb9gPi9vnlr8L2qf);strokeColor=#556a8a;spacingTop=-3;spacingBottom=-3;spacingLeft=-3;spacingRight=-3;labelBackgroundColor=none;rounded=0;html=1;whiteSpace=wrap;" parent="Cpq1ZpIzhN0V-iwIdP6c-222" vertex="1">
          <mxGeometry y="2.608695652173913" width="8.260869565217392" height="7.82608695652174" as="geometry" />
        </mxCell>
        <mxCell id="Cpq1ZpIzhN0V-iwIdP6c-226" style="vsdxID=335;edgeStyle=none;startArrow=none;endArrow=none;startSize=5;endSize=5;strokeColor=#556a8a;spacingTop=0;spacingBottom=0;spacingLeft=0;spacingRight=0;verticalAlign=middle;html=1;labelBackgroundColor=#ffffff;rounded=0;" parent="Cpq1ZpIzhN0V-iwIdP6c-222" edge="1">
          <mxGeometry relative="1" as="geometry">
            <Array as="points" />
            <mxPoint x="4.347826086956522" y="5.217391304347826" as="sourcePoint" />
            <mxPoint x="4.347826086956522" y="10.434782608695652" as="targetPoint" />
          </mxGeometry>
        </mxCell>
        <mxCell id="Cpq1ZpIzhN0V-iwIdP6c-227" value="&lt;font style=&quot;font-family: &amp;#34;segoe ui&amp;#34; ; color: rgb(89 , 89 , 89) ; direction: ltr ; letter-spacing: 0px ; line-height: 120% ; opacity: 1&quot;&gt;&lt;font style=&quot;font-size: 8px&quot;&gt;Istio&lt;/font&gt;&lt;br&gt;&lt;/font&gt;" style="verticalAlign=middle;align=left;vsdxID=382;fillColor=none;gradientColor=none;shape=stencil(nZBLDoAgDERP0z3SIyjew0SURgSD+Lu9kMZoXLhwN9O+tukAlrNpJg1SzDH4QW/URgNYgZTkjA4UkwJUgGXng+6DX1zLfmoymdXo17xh5zmRJ6Q42BWCfc2oJfdAr+Yv+AP9Cb7OJ3H/2JG1HNGz/84klThPVCc=);strokeColor=none;labelBackgroundColor=none;rounded=0;html=1;whiteSpace=wrap;" parent="Cpq1ZpIzhN0V-iwIdP6c-240" vertex="1">
          <mxGeometry x="129" y="26" width="79" height="11" as="geometry" />
        </mxCell>
        <mxCell id="Cpq1ZpIzhN0V-iwIdP6c-228" value="&lt;font style=&quot;font-family: &amp;#34;segoe ui&amp;#34; ; color: rgb(89 , 89 , 89) ; direction: ltr ; letter-spacing: 0px ; line-height: 120% ; opacity: 1&quot;&gt;&lt;font style=&quot;font-size: 8px&quot;&gt;Kiali&lt;/font&gt;&lt;br&gt;&lt;/font&gt;" style="verticalAlign=middle;align=left;vsdxID=382;fillColor=none;gradientColor=none;shape=stencil(nZBLDoAgDERP0z3SIyjew0SURgSD+Lu9kMZoXLhwN9O+tukAlrNpJg1SzDH4QW/URgNYgZTkjA4UkwJUgGXng+6DX1zLfmoymdXo17xh5zmRJ6Q42BWCfc2oJfdAr+Yv+AP9Cb7OJ3H/2JG1HNGz/84klThPVCc=);strokeColor=none;labelBackgroundColor=none;rounded=0;html=1;whiteSpace=wrap;" parent="Cpq1ZpIzhN0V-iwIdP6c-240" vertex="1">
          <mxGeometry x="129" y="51" width="79" height="11" as="geometry" />
        </mxCell>
        <mxCell id="Cpq1ZpIzhN0V-iwIdP6c-229" value="&lt;font style=&quot;font-family: &amp;#34;segoe ui&amp;#34; ; color: rgb(89 , 89 , 89) ; direction: ltr ; letter-spacing: 0px ; line-height: 120% ; opacity: 1&quot;&gt;&lt;font style=&quot;font-size: 8px&quot;&gt;Grafana&lt;/font&gt;&lt;br&gt;&lt;/font&gt;" style="verticalAlign=middle;align=left;vsdxID=382;fillColor=none;gradientColor=none;shape=stencil(nZBLDoAgDERP0z3SIyjew0SURgSD+Lu9kMZoXLhwN9O+tukAlrNpJg1SzDH4QW/URgNYgZTkjA4UkwJUgGXng+6DX1zLfmoymdXo17xh5zmRJ6Q42BWCfc2oJfdAr+Yv+AP9Cb7OJ3H/2JG1HNGz/84klThPVCc=);strokeColor=none;labelBackgroundColor=none;rounded=0;html=1;whiteSpace=wrap;" parent="Cpq1ZpIzhN0V-iwIdP6c-240" vertex="1">
          <mxGeometry x="128" y="77" width="79" height="11" as="geometry" />
        </mxCell>
        <mxCell id="Cpq1ZpIzhN0V-iwIdP6c-230" value="&lt;font style=&quot;font-family: &amp;#34;segoe ui&amp;#34; ; color: rgb(89 , 89 , 89) ; direction: ltr ; letter-spacing: 0px ; line-height: 120% ; opacity: 1&quot;&gt;&lt;font style=&quot;font-size: 8px&quot;&gt;Prometheus&lt;/font&gt;&lt;br&gt;&lt;/font&gt;" style="verticalAlign=middle;align=left;vsdxID=382;fillColor=none;gradientColor=none;shape=stencil(nZBLDoAgDERP0z3SIyjew0SURgSD+Lu9kMZoXLhwN9O+tukAlrNpJg1SzDH4QW/URgNYgZTkjA4UkwJUgGXng+6DX1zLfmoymdXo17xh5zmRJ6Q42BWCfc2oJfdAr+Yv+AP9Cb7OJ3H/2JG1HNGz/84klThPVCc=);strokeColor=none;labelBackgroundColor=none;rounded=0;html=1;whiteSpace=wrap;" parent="Cpq1ZpIzhN0V-iwIdP6c-240" vertex="1">
          <mxGeometry x="223" y="26" width="79" height="11" as="geometry" />
        </mxCell>
        <mxCell id="Cpq1ZpIzhN0V-iwIdP6c-231" style="vsdxID=329;fillColor=none;gradientColor=none;labelBackgroundColor=none;rounded=0;strokeColor=none;html=1;whiteSpace=wrap;" parent="Cpq1ZpIzhN0V-iwIdP6c-240" vertex="1">
          <mxGeometry x="199" y="50" width="20" height="20" as="geometry" />
        </mxCell>
        <mxCell id="Cpq1ZpIzhN0V-iwIdP6c-232" value="" style="verticalAlign=top;align=center;vsdxID=330;fillColor=#FFFFFF;gradientColor=none;shape=stencil(vVHLDsIgEPwajiQI6RfU+h8bu22JCGRB2/69kG1iazx58DazM/vIjjBtmiCi0CplCjecbZ8nYc5Ca+snJJsLEqYTph0C4Ujh4XvmEaqzont41gkL96naodXKrGF6YSfQtUi0OXXDVlqPfJNP6usotUhYbJIUMmQb/GGrAxpRljVycDBuc1hKM2LclX8/7H9nFfB+82Cd45T2+mcspcSRmu4F);strokeColor=#7f7f7f;labelBackgroundColor=none;rounded=0;html=1;whiteSpace=wrap;" parent="Cpq1ZpIzhN0V-iwIdP6c-231" vertex="1">
          <mxGeometry width="20" height="20" as="geometry" />
        </mxCell>
        <mxCell id="Cpq1ZpIzhN0V-iwIdP6c-233" style="vsdxID=331;fillColor=none;gradientColor=none;labelBackgroundColor=none;rounded=0;strokeColor=none;html=1;whiteSpace=wrap;" parent="Cpq1ZpIzhN0V-iwIdP6c-231" vertex="1">
          <mxGeometry x="5.6521739130434785" y="4.347826086956522" width="8.695652173913045" height="10.434782608695652" as="geometry" />
        </mxCell>
        <mxCell id="Cpq1ZpIzhN0V-iwIdP6c-234" style="vsdxID=332;fillColor=#dbeef3;gradientColor=none;shape=stencil(lZDRDoIwDEW/pq+krBh8R/wPEoZrnBsZE/Xv3WyMYDTGt9v23Ka9QM1kulGDwikGf9QX7qMB2oFS7IwOHJMCaoGawQd9CP7seqnHLpNZnfycN1zFVyJmj8Kb1FVdYP3o7AW37Bb4Zk3jd/KvtdW2wHJleN71Ef95dBKvhwe2VvJazt8DSi0Jl9o7);strokeColor=none;spacingTop=-3;spacingBottom=-3;spacingLeft=-3;spacingRight=-3;labelBackgroundColor=none;rounded=0;html=1;whiteSpace=wrap;" parent="Cpq1ZpIzhN0V-iwIdP6c-233" vertex="1">
          <mxGeometry width="8.260869565217392" height="5.6521739130434785" as="geometry" />
        </mxCell>
        <mxCell id="Cpq1ZpIzhN0V-iwIdP6c-235" style="vsdxID=333;fillColor=#dbeef3;gradientColor=none;shape=stencil(UzV2Ls5ILEhVNTIoLinKz04tz0wpyVA1dlE1MsrMy0gtyiwBslSNXVWNndPyi1LTi/JL81Ig/IJEkEoQKze/DGRCBUSfoYEBSI+RQSUq3w2iOCczD0mxKapaPCpRFVpa6pkZIisGMhAOSsvMyYH4B1ke3QNAIYjnjV0B);strokeColor=#556a8a;spacingTop=-3;spacingBottom=-3;spacingLeft=-3;spacingRight=-3;labelBackgroundColor=none;rounded=0;html=1;whiteSpace=wrap;" parent="Cpq1ZpIzhN0V-iwIdP6c-233" vertex="1">
          <mxGeometry width="8.695652173913045" height="2.608695652173913" as="geometry" />
        </mxCell>
        <mxCell id="Cpq1ZpIzhN0V-iwIdP6c-236" style="vsdxID=334;fillColor=#dbeef3;gradientColor=none;shape=stencil(jZHdDsIgDIWfprdLpUMfYM73WDImRISF4d/bCzbGSTLd3Wn79eSkBWom3Y0KBE4x+JO6mT5qoD0IYZxWwcSkgFqgZvBBHYO/uJ7rsctkVmd/zQ533sO8IfDB1VZW9e7VOTBsjZvB8pveIC6z7+FK6xL/4VykoLqStEyvtv0TN4nPDQdjLb9gPi9vnlr8L2qf);strokeColor=#556a8a;spacingTop=-3;spacingBottom=-3;spacingLeft=-3;spacingRight=-3;labelBackgroundColor=none;rounded=0;html=1;whiteSpace=wrap;" parent="Cpq1ZpIzhN0V-iwIdP6c-233" vertex="1">
          <mxGeometry y="2.608695652173913" width="8.260869565217392" height="7.82608695652174" as="geometry" />
        </mxCell>
        <mxCell id="Cpq1ZpIzhN0V-iwIdP6c-237" style="vsdxID=335;edgeStyle=none;startArrow=none;endArrow=none;startSize=5;endSize=5;strokeColor=#556a8a;spacingTop=0;spacingBottom=0;spacingLeft=0;spacingRight=0;verticalAlign=middle;html=1;labelBackgroundColor=#ffffff;rounded=0;" parent="Cpq1ZpIzhN0V-iwIdP6c-233" edge="1">
          <mxGeometry relative="1" as="geometry">
            <Array as="points" />
            <mxPoint x="4.347826086956522" y="5.217391304347826" as="sourcePoint" />
            <mxPoint x="4.347826086956522" y="10.434782608695652" as="targetPoint" />
          </mxGeometry>
        </mxCell>
        <mxCell id="Cpq1ZpIzhN0V-iwIdP6c-238" value="&lt;font style=&quot;font-family: &amp;#34;segoe ui&amp;#34; ; color: rgb(89 , 89 , 89) ; direction: ltr ; letter-spacing: 0px ; line-height: 120% ; opacity: 1&quot;&gt;&lt;font style=&quot;font-size: 8px&quot;&gt;Jaeger&lt;/font&gt;&lt;br&gt;&lt;/font&gt;" style="verticalAlign=middle;align=left;vsdxID=382;fillColor=none;gradientColor=none;shape=stencil(nZBLDoAgDERP0z3SIyjew0SURgSD+Lu9kMZoXLhwN9O+tukAlrNpJg1SzDH4QW/URgNYgZTkjA4UkwJUgGXng+6DX1zLfmoymdXo17xh5zmRJ6Q42BWCfc2oJfdAr+Yv+AP9Cb7OJ3H/2JG1HNGz/84klThPVCc=);strokeColor=none;labelBackgroundColor=none;rounded=0;html=1;whiteSpace=wrap;" parent="Cpq1ZpIzhN0V-iwIdP6c-240" vertex="1">
          <mxGeometry x="223" y="51" width="79" height="11" as="geometry" />
        </mxCell>
        <mxCell id="43" value="&lt;font style=&quot;font-size: 11px; font-family: &amp;quot;Segoe UI&amp;quot;; color: rgb(0, 0, 0); direction: ltr; letter-spacing: 0px; line-height: 120%; opacity: 1;&quot;&gt;Kubernetes cluster&lt;br style=&quot;font-size: 11px;&quot;&gt;&lt;/font&gt;" style="verticalAlign=middle;align=left;vsdxID=112;fillColor=none;gradientColor=none;shape=stencil(nZBLDoAgDERP0z3SIyjew0SURgSD+Lu9kMZoXLhwN9O+tukAlrNpJg1SzDH4QW/URgNYgZTkjA4UkwJUgGXng+6DX1zLfmoymdXo17xh5zmRJ6Q42BWCfc2oJfdAr+Yv+AP9Cb7OJ3H/2JG1HNGz/84klThPVCc=);strokeColor=none;labelBackgroundColor=none;rounded=0;html=1;whiteSpace=wrap;fontSize=11;" parent="Cpq1ZpIzhN0V-iwIdP6c-240" vertex="1">
          <mxGeometry x="-9" y="103" width="138" height="26" as="geometry" />
        </mxCell>
        <mxCell id="Cpq1ZpIzhN0V-iwIdP6c-241" value="" style="shape=image;verticalLabelPosition=bottom;labelBackgroundColor=#ffffff;verticalAlign=top;aspect=fixed;imageAspect=0;image=https://cdn4.iconfinder.com/data/icons/iconsimple-logotypes/512/github-512.png;" parent="1" vertex="1">
          <mxGeometry x="92.5" y="127" width="50" height="50" as="geometry" />
        </mxCell>
        <mxCell id="Cpq1ZpIzhN0V-iwIdP6c-243" style="vsdxID=134;edgeStyle=none;startArrow=block;endArrow=none;startSize=2;endSize=2;strokeColor=#0078d7;spacingTop=0;spacingBottom=0;spacingLeft=0;spacingRight=0;verticalAlign=middle;html=1;labelBackgroundColor=#ffffff;rounded=0;exitX=0.497;exitY=0.009;exitDx=0;exitDy=0;exitPerimeter=0;" parent="1" source="83" target="45" edge="1">
          <mxGeometry relative="1" as="geometry">
            <Array as="points" />
            <mxPoint x="228" y="301.58" as="sourcePoint" />
            <mxPoint x="159.18499999999995" y="302.26400000000007" as="targetPoint" />
          </mxGeometry>
        </mxCell>
        <mxCell id="52" value="&lt;font style=&quot;font-size:11px;font-family:Segoe UI;color:#000000;direction:ltr;letter-spacing:0px;line-height:120%;opacity:1&quot;&gt;Client Apps&lt;br/&gt;&lt;/font&gt;" style="verticalAlign=middle;align=center;vsdxID=181;fillColor=none;gradientColor=none;shape=stencil(nZBLDoAgDERP0z3SIyjew0SURgSD+Lu9kMZoXLhwN9O+tukAlrNpJg1SzDH4QW/URgNYgZTkjA4UkwJUgGXng+6DX1zLfmoymdXo17xh5zmRJ6Q42BWCfc2oJfdAr+Yv+AP9Cb7OJ3H/2JG1HNGz/84klThPVCc=);strokeColor=none;labelBackgroundColor=none;rounded=0;html=1;whiteSpace=wrap;" parent="1" vertex="1">
          <mxGeometry x="280" y="142" width="38" height="20" as="geometry" />
        </mxCell>
        <mxCell id="Cpq1ZpIzhN0V-iwIdP6c-245" value="&lt;font style=&quot;font-size: 11px ; font-family: &amp;#34;segoe ui&amp;#34; ; color: #000000 ; direction: ltr ; letter-spacing: 0px ; line-height: 120% ; opacity: 1&quot;&gt;Github&lt;br&gt;&lt;/font&gt;" style="verticalAlign=middle;align=center;vsdxID=181;fillColor=none;gradientColor=none;shape=stencil(nZBLDoAgDERP0z3SIyjew0SURgSD+Lu9kMZoXLhwN9O+tukAlrNpJg1SzDH4QW/URgNYgZTkjA4UkwJUgGXng+6DX1zLfmoymdXo17xh5zmRJ6Q42BWCfc2oJfdAr+Yv+AP9Cb7OJ3H/2JG1HNGz/84klThPVCc=);strokeColor=none;labelBackgroundColor=none;rounded=0;html=1;whiteSpace=wrap;" parent="1" vertex="1">
          <mxGeometry x="147" y="142" width="38" height="20" as="geometry" />
        </mxCell>
        <mxCell id="Cpq1ZpIzhN0V-iwIdP6c-263" value="" style="shape=image;imageAspect=0;aspect=fixed;verticalLabelPosition=bottom;verticalAlign=top;shadow=0;dashed=1;strokeColor=#6666FF;strokeWidth=1;fillColor=none;image=https://avatars.githubusercontent.com/u/6844498?s=200&amp;v=4;" parent="1" vertex="1">
          <mxGeometry x="691" y="141" width="49" height="49" as="geometry" />
        </mxCell>
        <mxCell id="Cpq1ZpIzhN0V-iwIdP6c-266" value="" style="shape=image;imageAspect=0;aspect=fixed;verticalLabelPosition=bottom;verticalAlign=top;shadow=0;dashed=1;strokeColor=#6666FF;strokeWidth=1;fillColor=none;image=https://dashboard.snapcraft.io/site_media/appmedia/2017/06/helm.png;" parent="1" vertex="1">
          <mxGeometry x="161" y="429" width="36" height="36" as="geometry" />
        </mxCell>
        <mxCell id="153" value="&lt;font style=&quot;font-size:11px;font-family:Segoe UI;color:#000000;direction:ltr;letter-spacing:0px;line-height:120%;opacity:1&quot;&gt;CI/CD&lt;br/&gt;&lt;/font&gt;" style="verticalAlign=top;align=center;vsdxID=274;fillColor=#f2f2f2;gradientColor=none;shape=stencil(nZBLDoAgDERP0z3SIyjew0SURgSD+Lu9kMZoXLhwN9O+tukAlrNpJg1SzDH4QW/URgNYgZTkjA4UkwJUgGXng+6DX1zLfmoymdXo17xh5zmRJ6Q42BWCfc2oJfdAr+Yv+AP9Cb7OJ3H/2JG1HNGz/84klThPVCc=);strokeColor=#bfbfbf;labelBackgroundColor=none;rounded=0;html=1;whiteSpace=wrap;" parent="1" vertex="1">
          <mxGeometry x="81" y="406" width="69" height="114" as="geometry" />
        </mxCell>
        <mxCell id="155" value="&lt;font style=&quot;font-size:11px;font-family:Segoe UI;color:#0078d7;direction:ltr;letter-spacing:0px;line-height:120%;opacity:1&quot;&gt;Azure Pipelines&lt;br/&gt;&lt;/font&gt;" style="verticalAlign=middle;align=center;vsdxID=173;fillColor=none;gradientColor=none;shape=stencil(nZBLDoAgDERP0z3SIyjew0SURgSD+Lu9kMZoXLhwN9O+tukAlrNpJg1SzDH4QW/URgNYgZTkjA4UkwJUgGXng+6DX1zLfmoymdXo17xh5zmRJ6Q42BWCfc2oJfdAr+Yv+AP9Cb7OJ3H/2JG1HNGz/84klThPVCc=);strokeColor=none;labelBackgroundColor=none;rounded=0;html=1;whiteSpace=wrap;" parent="1" vertex="1">
          <mxGeometry x="80" y="485" width="70" height="35" as="geometry" />
        </mxCell>
        <mxCell id="Cpq1ZpIzhN0V-iwIdP6c-265" value="" style="shape=image;imageAspect=0;aspect=fixed;verticalLabelPosition=bottom;verticalAlign=top;shadow=0;dashed=1;strokeColor=#6666FF;strokeWidth=1;fillColor=none;image=https://avatars.githubusercontent.com/ml/1303?s=140&amp;v=4;" parent="1" vertex="1">
          <mxGeometry x="94.5" y="438" width="44" height="44" as="geometry" />
        </mxCell>
        <mxCell id="R70YHDZ5rD5ZLVwwbKBx-177" style="vsdxID=134;edgeStyle=none;startArrow=block;endArrow=none;startSize=2;endSize=2;strokeColor=#0078d7;spacingTop=0;spacingBottom=0;spacingLeft=0;spacingRight=0;verticalAlign=middle;html=1;labelBackgroundColor=#ffffff;rounded=0;entryX=0.5;entryY=1;entryDx=0;entryDy=0;" parent="1" target="Cpq1ZpIzhN0V-iwIdP6c-241" edge="1">
          <mxGeometry relative="1" as="geometry">
            <Array as="points" />
            <mxPoint x="117" y="407" as="sourcePoint" />
            <mxPoint x="117.00039486100033" y="186" as="targetPoint" />
          </mxGeometry>
        </mxCell>
        <mxCell id="y_L1rLnan1oXnGs_XWC_-177" value="" style="shape=image;imageAspect=0;aspect=fixed;verticalLabelPosition=bottom;verticalAlign=top;image=https://techcommunity.microsoft.com/t5/image/serverpage/image-id/139230i3DFD7E4F47C1CAE4?v=v2;" vertex="1" parent="1">
          <mxGeometry x="604" y="296.63" width="150" height="78.75" as="geometry" />
        </mxCell>
        <mxCell id="y_L1rLnan1oXnGs_XWC_-178" value="&lt;font style=&quot;font-size: 8px&quot;&gt;Azure PostgreSQL&lt;/font&gt;" style="text;html=1;strokeColor=none;fillColor=none;align=center;verticalAlign=middle;whiteSpace=wrap;rounded=0;" vertex="1" parent="1">
          <mxGeometry x="627" y="376" width="98" height="30" as="geometry" />
        </mxCell>
        <mxCell id="y_L1rLnan1oXnGs_XWC_-179" style="vsdxID=174;edgeStyle=none;startArrow=block;endArrow=none;startSize=2;endSize=2;strokeColor=#0078d7;spacingTop=0;spacingBottom=0;spacingLeft=0;spacingRight=0;verticalAlign=middle;html=1;labelBackgroundColor=#ffffff;rounded=0;" edge="1" parent="1">
          <mxGeometry relative="1" as="geometry">
            <Array as="points" />
            <mxPoint x="646" y="335.77" as="sourcePoint" />
            <mxPoint x="630" y="336" as="targetPoint" />
          </mxGeometry>
        </mxCell>
        <mxCell id="56" style="vsdxID=185;fillColor=none;gradientColor=none;strokeColor=none;spacingTop=-3;spacingBottom=-3;spacingLeft=-3;spacingRight=-3;labelBackgroundColor=none;rounded=0;html=1;whiteSpace=wrap;" parent="1" vertex="1">
          <mxGeometry x="691" y="502" width="24" height="13" as="geometry" />
        </mxCell>
        <mxCell id="57" style="vsdxID=186;fillColor=#0078d7;gradientColor=none;shape=stencil(lVLLDoMgEPwargRYFTxb+x8mYiWlYFD7+PtKNk2licbeZtiZyWYHAtXYN4Mmgo1T8Ff9MO3UEzgRIYzrdTDTggjUBKrOB30JfnYt8qGJyohu/h4TnujjjEWPYC/kOdIzaq1xK61KpaCoLLfVnFEFiWEnOk0uaJ5ta6Wk+eGd0+ASaFb8s/LnPEfuUXAq+F743qUX8K2oM9Ziw+v5b6XLE34HqN8=);strokeColor=none;strokeWidth=2;spacingTop=-3;spacingBottom=-3;spacingLeft=-3;spacingRight=-3;labelBackgroundColor=none;rounded=0;html=1;whiteSpace=wrap;" parent="56" vertex="1">
          <mxGeometry x="17" width="7" height="13" as="geometry" />
        </mxCell>
        <mxCell id="58" style="vsdxID=187;fillColor=#0078d7;gradientColor=none;shape=stencil(lVLLDoMgEPwargRYRT1b+x8mYiWlYtC+/r6QTVMlkdjbDjszmexAoJ6HdlJEsHlx9qqeulsGAicihB4H5fTiJwINgbq3Tl2cvY8d4qkNzDDd7CM4vFDHgkKwN6Ic4RmZRo8rZkSFkhbVPrusKC82goQ1Z1tvSfMsEUTQ/HDq2LoCmsl/Yn8NjtxEcir4Pjt1az/8Kuq1Mdjweh9X6p/wO0DzAQ==);strokeColor=none;strokeWidth=2;spacingTop=-3;spacingBottom=-3;spacingLeft=-3;spacingRight=-3;labelBackgroundColor=none;rounded=0;html=1;whiteSpace=wrap;" parent="56" vertex="1">
          <mxGeometry width="7" height="13" as="geometry" />
        </mxCell>
        <mxCell id="59" style="vsdxID=188;fillColor=#0078d7;gradientColor=none;shape=stencil(jZPbDoIwDIafZrektNG5S+PhPYiALCKYAQpvL1gUu+ChV+3arl/+dYo2VRZdEoVQ1a48JTcb15mirUK0RZY4W/eeop2iTVq65OjKpog5vkRD5eCdy+twQ8t9IcDQg9BxvOBwz7WHxnFx6FePB1oHsKKXcbLFL8luTBoTmMm0CcdeEhzQkZz8AIP1DBtC8DaMJOenaSMMSDYJ7pF5YItfXJ5iiIEJly8D8ESTeS3B4LtIv1DmH0RyPjmmp8Y5fRFAS5ip4ZMyuS3+3rzemVY2tXnOG/+e91e8P+LvQbs7);strokeColor=none;strokeWidth=2;spacingTop=-3;spacingBottom=-3;spacingLeft=-3;spacingRight=-3;labelBackgroundColor=none;rounded=0;html=1;whiteSpace=wrap;" parent="56" vertex="1">
          <mxGeometry x="6" y="5" width="2" height="2" as="geometry" />
        </mxCell>
        <mxCell id="60" style="vsdxID=189;fillColor=#0078d7;gradientColor=none;shape=stencil(vVHLDsIgEPwajiQI6RfU+h8bu22JCGRB2/69kG1iazx58DazM/vIjjBtmiCi0CplCjecbZ8nYc5Ca+snJJsLEqYTph0C4Ujh4XvmEaqzont41gkL96naodXKrGF6YSfQtUi0OXXDVlqPfJNP6usotUhYbJIUMmQb/GGrAxpRljVycDBuc1hKM2LclX8/7H9nFfB+82Cd45T2+mcspcSRmu4F);strokeColor=none;strokeWidth=2;spacingTop=-3;spacingBottom=-3;spacingLeft=-3;spacingRight=-3;labelBackgroundColor=none;rounded=0;html=1;whiteSpace=wrap;" parent="56" vertex="1">
          <mxGeometry x="10" y="5" width="2" height="2" as="geometry" />
        </mxCell>
        <mxCell id="61" style="vsdxID=190;fillColor=#0078d7;gradientColor=none;shape=stencil(vVHLDsIgEPwajiQI6RfU+h8bu22JCGRB2/69kG1iazx58DazM/vIjjBtmiCi0CplCjecbZ8nYc5Ca+snJJsLEqYTph0C4Ujh4XvmEaqzont41gkL96naodXKrGF6YSfQtUi0OXXDVlqPfJNP6usotUhYbJIUMmQb/GGrAxpRljVycDBuc1hKM2LclX8/7H9nFfB+82Cd45T2+mcspcSRmu4F);strokeColor=none;strokeWidth=2;spacingTop=-3;spacingBottom=-3;spacingLeft=-3;spacingRight=-3;labelBackgroundColor=none;rounded=0;html=1;whiteSpace=wrap;" parent="56" vertex="1">
          <mxGeometry x="15" y="5" width="2" height="2" as="geometry" />
        </mxCell>
      </root>
    </mxGraphModel>
  </diagram>
</mxfile>
